<svg width="20" height="20" viewBox="0 0 20 20" fill="none" xmlns="http://www.w3.org/2000/svg">
<path d="M11.0781 9.08985H8.92137V6.10823C8.92098 5.99233 8.94017 5.8772 8.97813 5.76769L8.98948 5.73363C9.06654 5.5278 9.20452 5.35034 9.38502 5.22494C9.56552 5.09954 9.77996 5.03214 9.99975 5.03174C10.2203 5.03117 10.4356 5.09838 10.6166 5.22426C10.7977 5.35014 10.9357 5.52862 11.0119 5.73553C11.0557 5.8549 11.0781 5.98107 11.0781 6.10823V9.08985Z" fill="white"/>
<path d="M3.86102 6.18774H8.54346V9.0899H3.86102C3.73334 9.0901 3.6108 9.0396 3.52034 8.94949C3.42987 8.85938 3.37889 8.73704 3.37859 8.60936V6.66828C3.37889 6.5406 3.42987 6.41826 3.52034 6.32815C3.6108 6.23805 3.73334 6.18754 3.86102 6.18774Z" fill="white"/>
<path d="M11.4567 6.18774H16.1429C16.27 6.18829 16.3918 6.23916 16.4814 6.32921C16.5711 6.41927 16.6215 6.54118 16.6216 6.66828V8.60937C16.6215 8.73647 16.5711 8.85838 16.4814 8.94844C16.3918 9.03849 16.27 9.08936 16.1429 9.08991H11.4567V6.18774Z" fill="white"/>
<path d="M8.92122 9.46826H15.5088V15.598C15.508 15.8486 15.4081 16.0888 15.2309 16.266C15.0537 16.4433 14.8135 16.5432 14.5628 16.5439H5.43825C5.18749 16.5435 4.94712 16.4437 4.76981 16.2664C4.59249 16.0891 4.4927 15.8487 4.4923 15.598V9.46826H8.92122Z" fill="white"/>
<path d="M8.61892 5.64862C8.60187 5.70158 8.5881 5.75554 8.57768 5.81019H4.69078C4.58792 5.60121 4.5315 5.37244 4.5254 5.1396C4.51929 4.90676 4.56364 4.67535 4.65541 4.46127C4.79396 4.15825 5.01755 3.90199 5.299 3.72365C5.58045 3.54531 5.90764 3.45256 6.24081 3.45667H6.25784C7.46657 3.46859 8.42406 4.45503 8.93506 5.12381C8.80414 5.26216 8.70207 5.42519 8.63482 5.6034L8.61892 5.64862Z" fill="white"/>
<path d="M11.4246 5.80944C11.4105 5.74033 11.3915 5.67231 11.3678 5.60588C11.3018 5.42527 11.1997 5.25998 11.0678 5.12004C11.5752 4.45542 12.5325 3.46747 13.7442 3.45517H13.7613C14.0944 3.45166 14.4214 3.54475 14.7027 3.72317C14.984 3.90159 15.2076 4.1577 15.3465 4.46053C15.438 4.67469 15.4821 4.90607 15.476 5.13887C15.4699 5.37167 15.4136 5.6004 15.3109 5.80944H11.4246Z" fill="white"/>
</svg>
