<?xml version="1.0" standalone="no"?>
<!DOCTYPE svg PUBLIC "-//W3C//DTD SVG 1.1//EN" "http://www.w3.org/Graphics/SVG/1.1/DTD/svg11.dtd" >
<svg xmlns="http://www.w3.org/2000/svg">
<metadata>Generated by IcoMoon</metadata>
<defs>
<font id="icomoon" horiz-adv-x="1024">
<font-face units-per-em="1024" ascent="960" descent="-64" />
<missing-glyph horiz-adv-x="1024" />
<glyph unicode="&#x20;" horiz-adv-x="512" d="" />
<glyph unicode="&#xe900;" d="M708.71 252.497c-0.401-0.405-0.802-0.806-1.207-1.207-16.683-87.569-44.156-161.783-78.554-213.734 141.623 40.273 253.222 151.872 293.495 293.495-51.951-34.398-126.165-61.871-213.734-78.554z" />
<glyph unicode="&#xe901;" d="M922.445 564.941c-40.273 141.624-151.872 253.222-293.495 293.497 34.398-51.953 61.871-126.166 78.554-213.733 0.405-0.402 0.806-0.806 1.207-1.21 87.569-16.679 161.783-44.154 213.734-78.554z" />
<glyph unicode="&#xe902;" d="M316.506 644.705c16.68 87.567 44.154 161.78 78.554 213.733-141.624-40.275-253.222-151.872-293.497-293.496 51.953 34.399 126.166 61.874 213.733 78.553 0.402 0.405 0.806 0.808 1.21 1.21z" />
<glyph unicode="&#xe903;" d="M316.506 251.29c-0.405 0.401-0.808 0.802-1.21 1.207-87.567 16.683-161.78 44.156-213.733 78.554 40.275-141.623 151.872-253.222 293.497-293.495-34.399 51.951-61.874 126.165-78.554 213.734z" />
<glyph unicode="&#xe904;" d="M604.156 769.435c9.118-20.966 17.421-44.371 24.704-69.852-35.511 16.524-75.11 25.75-116.86 25.75s-81.348-9.226-116.86-25.75c7.282 25.481 15.587 48.885 24.703 69.852 17.217 39.596 36.063 67.599 53.744 84.798 17.382 16.909 30.272 20.433 38.413 20.433s21.030-3.524 38.413-20.433c17.681-17.199 36.527-45.202 53.743-84.798z" />
<glyph unicode="&#xe905;" d="M833.434 540.157c-20.966 9.116-44.369 17.42-69.85 24.703 16.525-35.511 25.749-75.11 25.749-116.86s-9.225-81.348-25.749-116.86c25.481 7.283 48.883 15.586 69.85 24.704 39.599 17.216 67.601 36.062 84.8 53.743 16.909 17.382 20.433 30.272 20.433 38.413s-3.524 21.030-20.433 38.413c-17.199 17.681-45.201 36.527-84.8 53.744z" />
<glyph unicode="&#xe906;" d="M260.416 564.86c-25.481-7.282-48.885-15.587-69.852-24.703-39.596-17.217-67.599-36.063-84.798-53.744-16.909-17.382-20.433-30.272-20.433-38.413v-0.026c0.007-8.141 3.541-21.022 20.433-38.387 17.199-17.681 45.202-36.527 84.798-53.743 20.966-9.118 44.371-17.421 69.852-24.704-16.524 35.511-25.75 75.11-25.75 116.86s9.226 81.348 25.75 116.86z" />
<glyph unicode="&#xe907;" d="M419.843 126.566c-9.116 20.966-17.42 44.369-24.703 69.85 35.511-16.525 75.11-25.749 116.86-25.749s81.348 9.225 116.86 25.749c-7.283-25.481-15.586-48.883-24.704-69.85-17.216-39.599-36.062-67.601-53.743-84.8-17.382-16.909-30.272-20.433-38.413-20.433s-21.030 3.524-38.413 20.433c-17.681 17.199-36.527 45.201-53.744 84.8z" />
<glyph unicode="&#xe908;" d="M571.332 520.619l-59.332 119.381-59.332-119.381-132.668-19.145 96-92.928-22.662-131.213 118.662 61.952 118.665-61.952-22.665 131.213 96 92.928-132.668 19.145z" />
<glyph unicode="&#xe909;" d="M402.269 878.82c1.982 9.986 10.744 17.18 20.925 17.18h177.617c10.18 0 18.944-7.194 20.924-17.18l16.713-84.178c1.442-7.266 6.566-13.222 13.427-16.015 29.483-12.003 57.067-27.513 82.044-46.305 5.837-4.392 13.444-5.789 20.365-3.444l82.944 28.11c9.583 3.247 20.126-0.681 25.246-9.405l88.482-150.73c5.235-8.918 3.319-20.307-4.544-27.023l-65.668-56.081c-5.687-4.855-8.375-12.331-7.351-19.738 2.082-15.066 3.354-30.374 3.354-46.012s-1.271-30.946-3.354-46.012c-1.024-7.407 1.664-14.882 7.351-19.738l65.668-56.081c7.863-6.716 9.779-18.103 4.544-27.021l-88.482-150.733c-5.12-8.721-15.663-12.651-25.246-9.404l-82.944 28.109c-6.921 2.347-14.528 0.947-20.365-3.443-24.977-18.79-52.561-34.3-82.044-46.306-6.861-2.79-11.985-8.747-13.427-16.013l-16.713-84.177c-1.98-9.988-10.743-17.182-20.924-17.182h-177.617c-10.181 0-18.943 7.194-20.925 17.182l-16.709 84.177c-1.442 7.266-6.568 13.222-13.429 16.013-29.481 12.006-57.068 27.516-82.044 46.306-5.837 4.39-13.445 5.79-20.364 3.443l-82.947-28.109c-9.58-3.247-20.124 0.683-25.245 9.404l-88.481 150.733c-5.235 8.917-3.32 20.305 4.544 27.021l65.669 56.081c5.687 4.855 8.372 12.331 7.349 19.738-2.082 15.066-3.351 30.374-3.351 46.012s1.269 30.946 3.351 46.012c1.023 7.407-1.663 14.882-7.349 19.738l-65.669 56.081c-7.864 6.715-9.779 18.104-4.544 27.023l88.481 150.73c5.121 8.724 15.664 12.652 25.245 9.405l82.947-28.11c6.918-2.345 14.526-0.948 20.363 3.444 24.976 18.792 52.563 34.302 82.044 46.305 6.861 2.793 11.987 8.75 13.429 16.015l16.709 84.178zM512.004 234.667c117.82 0 213.333 95.514 213.333 213.333s-95.514 213.333-213.333 213.333c-117.822 0-213.335-95.513-213.335-213.333s95.513-213.333 213.335-213.333z" />
<glyph unicode="&#xe90a;" d="M632.717 405.333h88.35c2.799 13.786 4.267 28.053 4.267 42.667s-1.468 28.881-4.267 42.667h-88.35c-12.855 36.369-41.681 65.195-78.050 78.050v88.349c-13.786 2.799-28.053 4.268-42.667 4.268s-28.881-1.469-42.667-4.268v-88.349c-36.369-12.855-65.195-41.681-78.050-78.050h-88.349c-2.799-13.786-4.268-28.053-4.268-42.667s1.469-28.881 4.268-42.667h88.349c12.855-36.369 41.681-65.195 78.050-78.050v-88.35c13.786-2.799 28.053-4.267 42.667-4.267s28.881 1.468 42.667 4.267v88.35c36.369 12.855 65.195 41.681 78.050 78.050z" />
<glyph unicode="&#xe90b;" d="M491.081 905.562c12.992 7.306 28.847 7.306 41.839 0l128-72c13.431-7.557 21.747-21.773 21.747-37.187v-142.093c0-15.414-8.316-29.63-21.747-37.187l-128-72c-12.992-7.306-28.847-7.306-41.839 0l-127.998 72c-13.435 7.557-21.749 21.773-21.749 37.187v142.093c0 15.414 8.314 29.63 21.749 37.187l127.998 72z" />
<glyph unicode="&#xe90c;" d="M213.749 478.895c12.988 7.305 28.847 7.305 41.836 0l128-72c13.435-7.556 21.749-21.773 21.749-37.188v-142.093c0-15.411-8.314-29.628-21.749-37.184l-128-72c-12.988-7.309-28.847-7.309-41.836 0l-128 72c-13.435 7.556-21.749 21.773-21.749 37.184v142.093c0 15.415 8.314 29.632 21.749 37.188l128 72z" />
<glyph unicode="&#xe90d;" d="M810.253 478.895c-12.992 7.305-28.847 7.305-41.839 0l-128-72c-13.431-7.556-21.747-21.773-21.747-37.188v-142.093c0-15.411 8.316-29.628 21.747-37.184l128-72c12.992-7.309 28.847-7.309 41.839 0l128 72c13.431 7.556 21.747 21.773 21.747 37.184v142.093c0 15.415-8.316 29.632-21.747 37.188l-128 72z" />
<glyph unicode="&#xe90e;" d="M277.333 758.854l-121.757-68.041c-23.613-13.196-38.243-38.13-38.243-65.18v-127.535l64 35.998v91.536c0 3.864 2.090 7.426 5.463 9.311l90.537 50.594v73.315z" />
<glyph unicode="&#xe90f;" d="M746.667 685.539v73.315l121.758-68.041c23.612-13.196 38.242-38.13 38.242-65.18v-127.535l-64 35.998v91.536c0 3.864-2.091 7.426-5.461 9.311l-90.539 50.594z" />
<glyph unicode="&#xe910;" d="M517.205 82.231l92.813 51.87 65.382-36.779-126.976-70.959c-22.635-12.651-50.214-12.651-72.849 0l-126.978 70.959 65.383 36.779 92.815-51.87c3.234-1.805 7.177-1.805 10.411 0z" />
<glyph unicode="&#xe911;" d="M512 473.783l-102.010 55.642-30.647-56.183 100.656-54.903v-194.338h64v194.338l100.655 54.903-30.643 56.183-102.012-55.642z" />
<glyph unicode="&#xe912;" d="M341.333 810.667h-128c-23.564 0-42.667-19.103-42.667-42.667v-704c0-23.565 19.103-42.667 42.667-42.667h597.333c23.565 0 42.667 19.102 42.667 42.667v704c0 23.564-19.102 42.667-42.667 42.667h-128v-64h-341.333v64zM466.987 455.846l-61.653 12.407c10.822 52.343 53.5 86.413 107.904 86.413 50.961 0 96.789-33.020 104.243-89.481 5.269-39.915-7.019-64.759-36.74-94.571-0.87-0.875-3.017-3.004-5.056-5.026l-0.030-0.030c-1.805-1.788-3.516-3.486-4.181-4.151-21.517-21.559-28.975-35.503-28.975-62.741h-62.925c0 46.118 15.014 74.18 47.061 106.287 0.806 0.815 2.765 2.756 4.698 4.672l0.243 0.243c1.835 1.818 3.614 3.58 4.301 4.275 17.502 17.553 21.5 25.638 19.204 43.025-3.025 22.929-20.365 35.422-41.843 35.422-24.614 0-41.425-13.419-46.251-36.745zM512 170.667c17.673 0 32 14.327 32 32s-14.327 32-32 32c-17.673 0-32-14.327-32-32s14.327-32 32-32z" />
<glyph unicode="&#xe913;" d="M384 874.667c-23.564 0-42.667-19.103-42.667-42.667v-85.333h341.333v85.333c0 23.564-19.102 42.667-42.667 42.667h-256z" />
<glyph unicode="&#xe914;" d="M466.987 455.846l-61.653 12.407c10.822 52.343 53.5 86.413 107.904 86.413 50.961 0 96.789-33.020 104.243-89.481 5.269-39.915-7.019-64.759-36.74-94.571-0.87-0.875-3.017-3.004-5.056-5.026l-0.030-0.030c-1.805-1.788-3.516-3.486-4.181-4.151-21.517-21.559-28.975-35.503-28.975-62.741h-62.925c0 46.118 15.014 74.18 47.061 106.287 0.806 0.815 2.765 2.756 4.698 4.672l0.094 0.094c1.89 1.873 3.742 3.708 4.45 4.425 17.502 17.553 21.5 25.638 19.204 43.025-3.025 22.929-20.365 35.422-41.843 35.422-24.614 0-41.425-13.419-46.251-36.745z" />
<glyph unicode="&#xe915;" d="M544 202.667c0-17.673-14.327-32-32-32s-32 14.327-32 32c0 17.673 14.327 32 32 32s32-14.327 32-32z" />
<glyph unicode="&#xe916;" d="M106.667 537.6c0 197.926 161.759 358.4 361.271 358.4 186.061 0 339.162-139.589 358.976-318.938l97.997-152.461c7.172-11.162 2.526-26.095-9.719-31.215l-85.982-35.951v-137.702c0-47.13-38.204-85.333-85.333-85.333h-95.305v-110.822c0-12.621-10.897-22.485-23.458-21.227l-230.448 23.091v422.775l-79.497 103.345c3.113 7.529 4.831 15.782 4.831 24.437 0 35.346-28.654 64-64 64s-64-28.654-64-64c0-35.346 28.654-64 64-64 2.859 0 5.674 0.188 8.434 0.55l66.232-86.101v-394.594l-50.11 5.022c-21.808 2.185-38.412 20.54-38.412 42.453v44.309c0 106.705-33.207 154.27-66.74 202.304-34.199 48.99-68.737 98.466-68.737 211.657zM221.414 714.663l-40.547 40.547c13.065 16.936 27.617 32.681 43.465 47.046l23.592-23.593h130.298l92.69-117.969c2.97 0.422 6.003 0.64 9.088 0.64 35.345 0 64-28.654 64-64s-28.655-64-64-64c-35.345 0-64 28.654-64 64 0 8.421 1.626 16.463 4.582 23.827l-73.466 93.503h-125.702z" />
<glyph unicode="&#xe917;" d="M180.864 755.205l40.547-40.547h125.702l73.466-93.503c-2.956-7.364-4.582-15.406-4.582-23.827 0-35.346 28.653-63.999 63.998-63.999 35.349 0 64 28.653 64 63.999s-28.651 64-64 64c-3.085 0-6.118-0.218-9.084-0.64l-92.692 117.97h-130.298l-23.592 23.592c-15.847-14.364-30.4-30.109-43.465-47.045z" />
<glyph unicode="&#xe918;" d="M315.166 551.558c3.113 7.529 4.831 15.782 4.831 24.437 0 35.346-28.654 64-64 64s-64-28.654-64-64c0-35.346 28.654-63.999 64-63.999 2.859 0 5.674 0.188 8.434 0.55l66.232-86.101v-394.594l64-6.413v422.775l-79.497 103.345z" />
<glyph unicode="&#xe919;" d="M213.333 896l-128-85.333 128-85.333v53.333h127.903l39.529-96h69.214l-52.284 126.973c-8.229 19.984-27.704 33.027-49.316 33.027h-135.046v53.333z" />
<glyph unicode="&#xe91a;" d="M341.236 117.333l39.529 96h69.214l-52.284-126.972c-8.229-19.985-27.704-33.028-49.316-33.028h-135.046v-53.333l-128 85.333 128 85.333v-53.333h127.903z" />
<glyph unicode="&#xe91b;" d="M626.304 86.362l-52.284 126.972h69.214l39.531-96h127.902v53.333l128-85.333-128-85.333v53.333h-135.049c-21.611 0-41.084 13.043-49.314 33.028z" />
<glyph unicode="&#xe91c;" d="M682.765 778.667l-39.531-96h-69.214l52.284 126.973c8.23 19.984 27.703 33.027 49.314 33.027h135.049v53.333l128-85.333-128-85.333v53.333h-127.902z" />
<glyph unicode="&#xe91d;" d="M378.097 326.665h-58.167l-86 151.002v-151.002h-58.5v242.669h58.5l85.833-150.999v150.999h58.333v-242.669z" />
<glyph unicode="&#xe91e;" d="M569.583 372.002h-80.166l-13.999-45.338h-62.501l89.001 242.669h54.997l89.668-242.669h-62.835l-14.165 45.338zM503.415 417.165h52.169l-26.167 84.169-26.001-84.169z" />
<glyph unicode="&#xe91f;" d="M775.735 524.169h72.836v45.165h-202.833v-45.165h71.497v-197.504h58.5v197.504z" />
<glyph unicode="&#xe920;" d="M503.415 417.165h52.169l-26.167 84.169-26.001-84.169z" />
<glyph unicode="&#xe921;" d="M106.667 682.667c-23.564 0-42.667-19.102-42.667-42.667v-384c0-23.565 19.103-42.667 42.667-42.667h810.667c23.565 0 42.667 19.102 42.667 42.667v384c0 23.564-19.102 42.667-42.667 42.667h-810.667zM319.93 326.665l-86 151.002v-151.002h-58.5v242.669h58.5l85.833-150.999v150.999h58.333v-242.669h-58.167zM569.583 372.002h-80.166l-13.999-45.338h-62.501l89.001 242.669h54.997l89.668-242.669h-62.835l-14.165 45.338zM848.572 524.169h-72.836v-197.504h-58.5v197.504h-71.497v45.165h202.833v-45.165z" />
<glyph unicode="&#xe922;" d="M391.32 327.326c-30.885 30.882-49.987 73.549-49.987 120.678s19.102 89.795 49.987 120.68l-226.274 226.274c-88.793-88.793-143.713-211.46-143.713-346.954 0-135.492 54.92-258.159 143.713-346.953l226.274 226.274z" />
<glyph unicode="&#xe923;" d="M858.953 101.052c88.794 88.794 143.714 211.46 143.714 346.953 0 135.494-54.921 258.161-143.714 346.954l-226.274-226.274c30.886-30.885 49.988-73.551 49.988-120.68s-19.102-89.796-49.988-120.678l226.274-226.274z" />
<glyph unicode="&#xe924;" d="M364.086 743.82c44.507 22.298 94.747 34.846 147.914 34.846s103.403-12.548 147.908-34.843l28.629 57.256c-53.12 26.611-113.079 41.587-176.538 41.587s-123.421-14.977-176.542-41.59l28.628-57.256z" />
<glyph unicode="&#xe925;" d="M688.538 94.921l-28.629 57.254c-44.506-22.293-94.741-34.842-147.908-34.842s-103.407 12.548-147.914 34.846l-28.628-57.254c53.121-26.615 113.084-41.591 176.542-41.591s123.418 14.976 176.538 41.587z" />
<glyph unicode="&#xe926;" d="M597.329 448c0 47.13-38.204 85.333-85.333 85.333-47.125 0-85.332-38.204-85.332-85.333s38.206-85.333 85.332-85.333c47.13 0 85.333 38.204 85.333 85.333z" />
<glyph unicode="&#xe927;" d="M511.996 650.667c-32.585 0-63.377-7.691-90.654-21.356l-28.628 57.256c35.89 17.981 76.407 28.1 119.282 28.1s83.392-10.12 119.283-28.101l-28.629-57.256c-27.277 13.666-58.065 21.357-90.654 21.357z" />
<glyph unicode="&#xe928;" d="M602.65 266.688l28.629-57.254c-35.891-17.98-76.407-28.1-119.283-28.1s-83.392 10.121-119.282 28.1l28.628 57.254c27.277-13.662 58.070-21.355 90.654-21.355 32.589 0 63.377 7.693 90.654 21.355z" />
<glyph unicode="&#xe929;" d="M633.446 21.333c-61.171 50.871-100.113 127.556-100.113 213.333 0 71.68 27.191 137.007 71.825 186.227-29.346 3.793-60.501 5.773-93.158 5.773-213.49 0-362.667-84.659-362.667-205.875v-199.458h484.113z" />
<glyph unicode="&#xe92a;" d="M661.333 722.663c0 83.949-66.854 152.003-149.325 152.003-5.483 0-10.957-0.307-16.401-0.919-81.973-9.22-141.082-84.337-132.024-167.779l9.637-88.778c7.818-72.019 67.603-126.524 138.788-126.524 71.181 0 130.965 54.505 138.786 126.524l9.634 88.778c0.602 5.544 0.905 11.117 0.905 16.695z" />
<glyph unicode="&#xe92b;" d="M760.038 448l-10.688-53.833c-17.818-6.622-34.295-15.872-48.764-27.541l-52.625 17.83-50.628-86.246 42.108-35.959c-1.493-9.003-2.462-18.167-2.462-27.584s0.969-18.581 2.462-27.584l-42.108-35.959 50.628-86.246 52.625 17.83c14.468-11.669 30.946-20.919 48.764-27.541l10.688-53.833h101.257l10.688 53.833c17.818 6.622 34.295 15.872 48.764 27.541l52.625-17.83 50.628 86.246-42.108 35.959c1.493 9.003 2.462 18.167 2.462 27.584s-0.969 18.581-2.462 27.584l42.108 35.959-50.628 86.246-52.625-17.83c-14.468 11.669-30.946 20.919-48.764 27.541l-10.688 53.833h-101.257zM881.779 234.671c0-39.275-31.838-71.113-71.113-71.113s-71.113 31.838-71.113 71.113c0 39.275 31.838 71.108 71.113 71.108s71.113-31.834 71.113-71.108z" />
<glyph unicode="&#xe92c;" d="M409.615 256l105.602 384h88.499l-105.6-384z" />
<glyph unicode="&#xe92d;" d="M332.498 584.837l60.34-60.34-65.83-65.83 65.83-65.83-60.34-60.339-126.17 126.17z" />
<glyph unicode="&#xe92e;" d="M691.503 584.837l126.17-126.17-126.17-126.17-60.339 60.339 65.83 65.83-65.83 65.83z" />
<glyph unicode="&#xe92f;" d="M896 789.333c23.565 0 42.667-19.103 42.667-42.667v0-597.333c0-23.565-19.102-42.667-42.667-42.667v0h-768c-23.564 0-42.667 19.102-42.667 42.667v0 597.333c0 23.564 19.103 42.667 42.667 42.667v0zM603.716 640h-88.499l-105.602-384h88.501l105.6 384zM332.498 584.837l-126.17-126.17 126.17-126.17 60.34 60.34-65.83 65.83 65.83 65.83-60.34 60.34zM691.503 584.837l-60.339-60.34 65.83-65.83-65.83-65.83 60.339-60.34 126.17 126.17-126.17 126.17z" />
<glyph unicode="&#xe930;" d="M394.668 573.619c-35.021-5.268-67.255-19.049-94.525-39.169l-145.994 145.994c55.442 85.181 140.474 149.335 240.519 177.89v-284.715z" />
<glyph unicode="&#xe931;" d="M213.333 362.671c0-47.369 15.436-91.127 41.553-126.528l-66.368-66.368c-64.31 74.701-103.185 171.925-103.185 278.229 0 61.909 13.187 120.743 36.905 173.839l132.649-132.649c-26.117-35.396-41.553-79.159-41.553-126.524z" />
<glyph unicode="&#xe932;" d="M426.667 149.333c47.364 0 91.127 15.437 126.524 41.553l132.651-132.651c-53.099-23.718-111.927-36.902-173.841-36.902-106.302 0-203.525 38.874-278.227 103.185l66.368 66.368c35.399-26.116 79.159-41.553 126.525-41.553z" />
<glyph unicode="&#xe933;" d="M637.619 330.667c-5.269-35.021-19.051-67.255-39.172-94.524l145.997-145.997c85.18 55.445 149.333 140.476 177.886 240.521h-284.71z" />
<glyph unicode="&#xe934;" d="M512 874.667c106.304 0 203.524-38.875 278.225-103.185l-237.035-237.035c-27.268 20.12-59.503 33.901-94.524 39.169v297.75c17.472 2.179 35.273 3.301 53.333 3.301z" />
<glyph unicode="&#xe935;" d="M637.619 394.671c-5.269 35.021-19.051 67.251-39.172 94.524l237.035 237.035c64.311-74.702 103.185-171.924 103.185-278.225 0-18.065-1.122-35.866-3.298-53.333h-297.749z" />
<glyph unicode="&#xe936;" d="M128 773.923c0 21.12 15.451 39.062 36.337 42.195l390.329 58.549v-853.333l-390.329 58.551c-20.886 3.132-36.337 21.073-36.337 42.193v651.845z" />
<glyph unicode="&#xe937;" d="M841.259 582.944c-54.451-18.15-125.602-28.278-201.259-28.278-7.155 0-14.268 0.090-21.333 0.27v-106.647c7.036-0.192 14.148-0.29 21.333-0.29 141.385 0 256 38.204 256 85.333v73.891c-16.823-9.981-35.652-17.917-54.741-24.28z" />
<glyph unicode="&#xe938;" d="M896 704c0-47.128-114.615-85.333-256-85.333-7.185 0-14.298 0.099-21.333 0.292v170.082c4.395 0.121 8.823 0.205 13.282 0.251 2.671 0.027 5.359 0.041 8.051 0.041 141.385 0 256-38.205 256-85.333z" />
<glyph unicode="&#xe939;" d="M618.667 106.957c7.036-0.192 14.148-0.29 21.333-0.29 141.385 0 256 38.204 256 85.333v73.89c-16.823-9.98-35.652-17.916-54.741-24.277-54.451-18.15-125.602-28.279-201.259-28.279-7.155 0-14.268 0.090-21.333 0.269v-106.645z" />
<glyph unicode="&#xe93a;" d="M896 362.667v73.89c-16.823-9.98-35.652-17.916-54.741-24.277-54.451-18.15-125.602-28.279-201.259-28.279-7.155 0-14.268 0.090-21.333 0.269v-106.645c7.036-0.192 14.148-0.29 21.333-0.29 141.385 0 256 38.204 256 85.333z" />
<glyph unicode="&#xe93b;" d="M682.667 682.667c0-106.039-85.961-192-192-192s-192 85.961-192 192c0 106.039 85.961 192 192 192s192-85.961 192-192z" />
<glyph unicode="&#xe93c;" d="M938.667 256c0-70.694-57.306-128-128-128s-128 57.306-128 128c0 70.694 57.306 128 128 128s128-57.306 128-128z" />
<glyph unicode="&#xe93d;" d="M234.667 21.333c82.475 0 149.333 66.859 149.333 149.333s-66.859 149.333-149.333 149.333c-82.475 0-149.333-66.859-149.333-149.333s66.859-149.333 149.333-149.333z" />
<glyph unicode="&#xe93e;" d="M579.682 512.499l126.933-181.935c16.832 23.45 41.399 40.973 69.969 48.845l-131.733 188.82c-17.195-23.128-39.467-42.256-65.169-55.73z" />
<glyph unicode="&#xe93f;" d="M697.51 196.1c-9.481 17.873-14.848 38.255-14.848 59.895 0 8.384 0.806 16.58 2.347 24.516l-315-46.665c8.974-19.191 13.987-40.602 13.987-63.185 0-7.206-0.51-14.298-1.497-21.231l315.012 46.669z" />
<glyph unicode="&#xe940;" d="M257 318.336c29.419-4.412 56.029-17.408 77.203-36.352l101.902 216.542c-28.061 8.299-53.443 22.839-74.538 42.013l-104.566-222.203z" />
<glyph unicode="&#xe941;" d="M512 597.335c98.889 0 190.959 12.44 260.45 34.156 29.474 9.21 57.549 20.904 80.883 35.822v-133.979c0-47.13-152.819-85.333-341.333-85.333s-341.333 38.204-341.333 85.333v133.979c23.334-14.918 51.411-26.612 80.884-35.822 69.49-21.716 161.56-34.156 260.449-34.156z" />
<glyph unicode="&#xe942;" d="M170.667 441.758v-121.758c0-47.13 152.82-85.333 341.333-85.333s341.333 38.204 341.333 85.333v121.758c-23.923-13.082-53.389-23.087-84.45-30.852-68.177-17.045-158.972-26.906-256.883-26.906-97.913 0-188.706 9.86-256.881 26.906-31.062 7.765-60.527 17.771-84.452 30.852z" />
<glyph unicode="&#xe943;" d="M768.883 197.572c31.061 7.765 60.527 17.771 84.45 30.852v-121.758c0-47.125-152.819-85.333-341.333-85.333s-341.333 38.208-341.333 85.333v121.758c23.925-13.082 53.39-23.087 84.452-30.852 68.176-17.045 158.968-26.906 256.881-26.906 97.911 0 188.706 9.86 256.883 26.906z" />
<glyph unicode="&#xe944;" d="M853.333 768c0-58.91-152.819-106.667-341.333-106.667s-341.333 47.756-341.333 106.667c0 58.91 152.82 106.667 341.333 106.667s341.333-47.756 341.333-106.667z" />
<glyph unicode="&#xe945;" d="M480 873.489c-220.695-16.364-394.667-200.608-394.667-425.485 0-235.639 191.025-426.667 426.667-426.667 106.304 0 203.524 38.874 278.225 103.185l-90.871 90.871c-51.238-41.318-116.407-66.057-187.354-66.057-164.949 0-298.667 133.717-298.667 298.667 0 154.139 116.765 281.006 266.667 296.973v128.512z" />
<glyph unicode="&#xe946;" d="M937.485 416.004c-6.95-93.76-44.207-179.089-102.003-246.229l-90.876 90.876c35.025 43.43 58.138 96.87 64.367 155.354h128.512z" />
<glyph unicode="&#xe947;" d="M937.485 480.004c-15.582 210.132-183.356 377.905-393.485 393.485v-128.512c139.388-14.848 250.125-125.584 264.973-264.973h128.512z" />
<glyph unicode="&#xe948;" d="M298.667 448c0 0 58.182 170.667 213.333 170.667 155.153 0 213.333-170.667 213.333-170.667s-58.18-170.667-213.333-170.667c-155.151 0-213.333 170.667-213.333 170.667zM512 384c35.345 0 64 28.655 64 64s-28.655 64-64 64c-35.345 0-64-28.655-64-64s28.655-64 64-64z" />
<glyph unicode="&#xe949;" d="M577.498 605.521l91.712-91.712-423.259-478.148c-16.295-18.411-44.734-19.273-62.118-1.89l-86.7 86.699c-17.392 17.395-16.516 45.85 1.913 62.14l478.452 422.912z" />
<glyph unicode="&#xe94a;" d="M858.982 550.934c15.488-15.489 38.178-19.388 57.293-11.697 10.927 4.398 24.418 4.945 32.751-3.383l11.43-11.424c8.329-8.333 8.329-21.841 0-30.17l-120.683-120.678c-8.329-8.333-21.837-8.333-30.17 0l-12.629 12.625c-7.906 7.91-8.043 20.493-3.021 30.485 15.185 30.199 10.176 67.959-15.036 93.171-30.063 30.060-77.969 31.403-109.623 4.028l-91.913 91.91c35.627 49.989 31.014 119.836-13.833 164.683s-114.692 49.459-164.682 13.833l-16.336 16.337c105.251 70.171 245.402 56.294 334.853-33.155l126.515-126.516c8.333-8.331 7.782-21.824 3.388-32.754-7.693-19.115-3.793-41.806 11.695-57.295z" />
<glyph unicode="&#xe94b;" d="M452.634 514.334c12.403-27.814 30.016-53.867 52.834-76.685 19.516-19.516 41.399-35.221 64.725-47.121l-189.316-189.312c9.874-47.612-3.665-99.11-40.616-136.060-58.318-58.317-152.871-58.317-211.189 0s-58.319 152.87 0 211.187c34.793 34.795 82.483 48.832 127.681 42.108l195.88 195.883zM204.493 140.578c16.663-16.661 43.677-16.661 60.34 0 16.662 16.666 16.662 43.678 0 60.343-16.663 16.661-43.677 16.661-60.34 0-16.662-16.666-16.662-43.678 0-60.343z" />
<glyph unicode="&#xe94c;" d="M752.781 865.978c-85.406 22.808-180.309 0.71-247.309-66.292-99.976-99.974-99.976-262.064 0-362.037 99.972-99.977 262.063-99.977 362.035 0 67.004 66.999 89.101 161.904 66.295 247.31l-111.548-111.547-135.765 45.255-45.257 135.764 111.548 111.547z" />
<glyph unicode="&#xe94d;" d="M885.333 329.899l-204.557-118.101-204.553 118.101v183.091l-128 67.368v-299.727c0-15.245 8.132-29.329 21.333-36.954l289.886-167.364c13.201-7.62 29.466-7.62 42.667 0l289.89 167.364c13.201 7.625 21.333 21.709 21.333 36.954v334.732c0 15.243-8.132 29.329-21.333 36.95l-289.89 167.366c-6.601 3.811-13.965 5.716-21.333 5.716v-141.201l204.557-118.099v-236.197z" />
<glyph unicode="&#xe94e;" d="M138.667 566.095l204.554 118.099 204.556-118.099v-183.094l128-67.366v299.728c0 15.243-8.132 29.329-21.333 36.95l-289.889 167.366c-13.201 7.622-29.466 7.622-42.667 0l-289.887-167.366c-13.201-7.622-21.333-21.707-21.333-36.951v-334.731c0-15.245 8.132-29.329 21.333-36.954l289.887-167.364c6.601-3.81 13.967-5.717 21.333-5.717v141.201l-204.554 118.101v236.197z" />
<glyph unicode="&#xe94f;" d="M495.002 888.614c10.842 4.709 23.155 4.709 33.997 0l341.333-148.256c15.586-6.769 25.668-22.117 25.668-39.11v-222.221c0-318.711-261.798-471.569-375.915-498.607-5.38-1.276-10.79-1.276-16.171 0-114.116 27.038-375.915 179.895-375.915 498.607v222.221c0 16.992 10.083 32.34 25.669 39.11l341.333 148.256zM544 409.361c55.206 14.212 96 64.324 96 123.968 0 70.693-57.306 128-128 128s-128-57.308-128-128c0-59.644 40.793-109.756 96-123.968v-196.032h64v64h74.667v64h-74.667v68.032z" />
<glyph unicode="&#xe950;" d="M640 533.333c0-59.644-40.794-109.76-96-123.968v-68.032h74.667v-64h-74.667v-64h-64v196.032c-55.207 14.208-96 64.324-96 123.968 0 70.692 57.306 128 128 128s128-57.308 128-128z" />
<glyph unicode="&#xe951;" d="M213.333 789.333c-23.564 0-42.667-19.103-42.667-42.667v-597.333c0-23.565 19.103-42.667 42.667-42.667h597.333c23.565 0 42.667 19.102 42.667 42.667v597.333c0 23.564-19.102 42.667-42.667 42.667h-597.333zM384 576h256v-256h-256v256z" />
<glyph unicode="&#xe952;" d="M298.667 874.667h85.333v-85.333h-85.333v85.333z" />
<glyph unicode="&#xe953;" d="M85.333 661.333h85.333v-85.333h-85.333v85.333z" />
<glyph unicode="&#xe954;" d="M170.667 490.667h-85.333v-85.333h85.333v85.333z" />
<glyph unicode="&#xe955;" d="M85.333 320h85.333v-85.333h-85.333v85.333z" />
<glyph unicode="&#xe956;" d="M938.667 661.333h-85.333v-85.333h85.333v85.333z" />
<glyph unicode="&#xe957;" d="M853.333 490.667h85.333v-85.333h-85.333v85.333z" />
<glyph unicode="&#xe958;" d="M938.667 320h-85.333v-85.333h85.333v85.333z" />
<glyph unicode="&#xe959;" d="M469.333 874.667h85.333v-85.333h-85.333v85.333z" />
<glyph unicode="&#xe95a;" d="M725.333 874.667h-85.333v-85.333h85.333v85.333z" />
<glyph unicode="&#xe95b;" d="M298.667 106.667h85.333v-85.333h-85.333v85.333z" />
<glyph unicode="&#xe95c;" d="M554.667 106.667h-85.333v-85.333h85.333v85.333z" />
<glyph unicode="&#xe95d;" d="M640 106.667h85.333v-85.333h-85.333v85.333z" />
<glyph unicode="&#xe95e;" d="M640 576h-256v-256h256v256z" />
<glyph unicode="&#xe95f;" d="M512 498.321l148.053 92.533 45.227-72.364-150.613-94.131v-168.354h-85.333v168.354l-150.615 94.131 45.227 72.364 148.055-92.533z" />
<glyph unicode="&#xe960;" d="M533.333 883.68l345.314-199.366c13.201-7.622 21.333-21.707 21.333-36.95v-398.732c0-15.245-8.132-29.329-21.333-36.954l-345.314-199.364c-13.201-7.62-29.466-7.62-42.667 0l-345.312 199.364c-13.201 7.625-21.333 21.709-21.333 36.954v398.731c0 15.244 8.132 29.329 21.333 36.951l345.312 199.366c13.201 7.622 29.466 7.622 42.667 0zM660.053 590.846l-148.053-92.534-148.055 92.534-45.227-72.361 150.615-94.135v-168.354h85.333v168.354l150.613 94.135-45.227 72.361z" />
<glyph unicode="&#xe961;" d="M490.726 911.535c13.163 7.731 29.385 7.731 42.547 0l362.786-213.029c13.163-7.73 21.274-22.017 21.274-37.478v-426.060c0-15.458-8.111-29.747-21.274-37.474l-362.786-213.030c-13.163-7.731-29.385-7.731-42.547 0l-362.785 213.030c-13.165 7.727-21.274 22.016-21.274 37.474v319.703l170.667 98.807v132.751l213.393 125.305zM853.333 251.511v383.999l-170.667-98.807v-384l170.667 98.807zM469.333 379.511v149.333l-170.667-98.807v-149.333l170.667 98.807z" />
<glyph unicode="&#xe962;" d="M853.333 635.511v-383.999l-170.667-98.807v384l170.667 98.807z" />
<glyph unicode="&#xe963;" d="M469.333 528.845v-149.333l-170.667-98.807v149.333l170.667 98.807z" />
<glyph unicode="&#xe964;" d="M554.667 405.333v42.667c0 23.565-19.102 42.667-42.667 42.667s-42.667-19.102-42.667-42.667v-42.667h85.333z" />
<glyph unicode="&#xe965;" d="M128 810.667h277.333l106.667-85.333h384c23.565 0 42.667-19.103 42.667-42.667v-554.667c0-23.565-19.102-42.667-42.667-42.667h-768c-23.564 0-42.667 19.102-42.667 42.667v640c0 23.564 19.103 42.667 42.667 42.667zM405.333 448v-42.667h-42.667v-170.667h298.667v170.667h-42.667v42.667c0 58.91-47.757 106.667-106.667 106.667s-106.667-47.757-106.667-106.667z" />
<glyph unicode="&#xe966;" d="M405.333 405.333h-42.667v-170.667h298.667v170.667h-42.667v42.667c0 58.91-47.757 106.667-106.667 106.667s-106.667-47.757-106.667-106.667v-42.667zM554.667 448v-42.667h-85.333v42.667c0 23.565 19.102 42.667 42.667 42.667s42.667-19.102 42.667-42.667z" />
<glyph unicode="&#xe967;" d="M128 789.333v-309.333h768v309.333c0 23.564-19.102 42.667-42.667 42.667h-682.667c-23.564 0-42.667-19.103-42.667-42.667zM256 725.333h64v-128h-64v128zM405.333 725.333h64v-128h-64v128zM554.667 725.333h64v-128h-64v128zM704 725.333h64v-128h-64v128z" />
<glyph unicode="&#xe968;" d="M256 725.333h64v-128h-64v128z" />
<glyph unicode="&#xe969;" d="M405.333 725.333h64v-128h-64v128z" />
<glyph unicode="&#xe96a;" d="M554.667 725.333h64v-128h-64v128z" />
<glyph unicode="&#xe96b;" d="M704 725.333h64v-128h-64v128z" />
<glyph unicode="&#xe96c;" d="M896 416h-768v-309.333c0-23.565 19.103-42.667 42.667-42.667h682.667c23.565 0 42.667 19.102 42.667 42.667v309.333zM320 298.667v-128h-64v128h64zM405.333 298.667h64v-128h-64v128z" />
<glyph unicode="&#xe96d;" d="M128 832c-23.564 0-42.667-19.103-42.667-42.667v-512c0-23.565 19.103-42.667 42.667-42.667h768c23.565 0 42.667 19.102 42.667 42.667v512c0 23.564-19.102 42.667-42.667 42.667h-768zM428.254 749.177l111.676-301.519 101.427 172.428 57.613-107.945h133.030v-64h-171.418l-21.939 41.105-111.906-190.242-101.66 274.484-51.654-125.347h-181.424v64h138.576l97.678 237.036z" />
<glyph unicode="&#xe96e;" d="M539.93 447.659l-111.676 301.519-97.678-237.036h-138.576v-64h181.424l51.654 125.347 101.66-274.484 111.906 190.242 21.939-41.105h171.418v64h-133.030l-57.613 107.945-101.427-172.428z" />
<glyph unicode="&#xe96f;" d="M768 149.333h-512v-85.333h512v85.333z" />
<glyph unicode="&#xe970;" d="M106.667 672c0 100.148 81.186 181.333 181.333 181.333s181.333-81.186 181.333-181.333v-181.333h-181.333c-100.148 0-181.333 81.186-181.333 181.333z" />
<glyph unicode="&#xe971;" d="M106.667 224c0-100.147 81.186-181.333 181.333-181.333s181.333 81.186 181.333 181.333v181.333h-181.333c-100.148 0-181.333-81.186-181.333-181.333z" />
<glyph unicode="&#xe972;" d="M736 853.333c100.147 0 181.333-81.186 181.333-181.333s-81.186-181.333-181.333-181.333h-181.333v181.333c0 100.148 81.186 181.333 181.333 181.333z" />
<glyph unicode="&#xe973;" d="M917.333 224c0-100.147-81.186-181.333-181.333-181.333s-181.333 81.186-181.333 181.333v181.333h181.333c100.147 0 181.333-81.186 181.333-181.333z" />
<glyph unicode="&#xe974;" d="M42.667 298.667c0-129.604 105.064-234.667 234.667-234.667h490.667c117.82 0 213.333 95.514 213.333 213.333 0 95.522-62.78 176.384-149.333 203.567v52.433c0 164.949-133.717 298.667-298.667 298.667s-298.667-133.718-298.667-298.667c0-1.289 0.008-2.577 0.024-3.866-109.244-20.053-192.024-115.759-192.024-230.801zM426.667 618.667h64v-426.667h-64v426.667zM298.667 405.333h64v-213.333h-64v213.333zM554.667 490.667h64v-298.667h-64v298.667zM682.667 362.667h64v-170.667h-64v170.667z" />
<glyph unicode="&#xe975;" d="M490.667 618.667h-64v-426.667h64v426.667z" />
<glyph unicode="&#xe976;" d="M362.667 405.333h-64v-213.333h64v213.333z" />
<glyph unicode="&#xe977;" d="M554.667 490.667h64v-298.667h-64v298.667z" />
<glyph unicode="&#xe978;" d="M746.667 362.667h-64v-170.667h64v170.667z" />
<glyph unicode="&#xe979;" d="M853.333 832h-597.333v-768h597.333c23.565 0 42.667 19.102 42.667 42.667v682.667c0 23.564-19.102 42.667-42.667 42.667zM512 682.667v-64h-128v64h128zM554.667 298.667v-64h-170.667v64h170.667zM682.667 426.667v-64h-213.333v64h213.333zM768 554.667v-64h-298.667v64h298.667z" />
<glyph unicode="&#xe97a;" d="M170.667 832c-23.564 0-42.667-19.103-42.667-42.667v-682.667c0-23.565 19.103-42.667 42.667-42.667h85.333v768h-85.333z" />
<glyph unicode="&#xe97b;" d="M512 682.667v-64h-128v64h128z" />
<glyph unicode="&#xe97c;" d="M554.667 298.667v-64h-170.667v64h170.667z" />
<glyph unicode="&#xe97d;" d="M682.667 426.667v-64h-213.333v64h213.333z" />
<glyph unicode="&#xe97e;" d="M768 554.667v-64h-298.667v64h298.667z" />
<glyph unicode="&#xe97f;" d="M296.078 277.333l170.665 170.667-170.665 170.667h-168.079c-23.564 0-42.667-19.102-42.667-42.667v-256c0-23.565 19.103-42.667 42.667-42.667h168.078z" />
<glyph unicode="&#xe980;" d="M727.923 277.333h168.077c23.565 0 42.667 19.102 42.667 42.667v256c0 23.564-19.102 42.667-42.667 42.667h-168.077l-170.667-170.667 170.667-170.667z" />
<glyph unicode="&#xe981;" d="M341.333 64v168.077l170.667 170.667 170.667-170.667v-168.077c0-23.565-19.102-42.667-42.667-42.667h-256c-23.564 0-42.667 19.102-42.667 42.667z" />
<glyph unicode="&#xe982;" d="M682.667 663.922l-170.667-170.665-170.667 170.665v168.078c0 23.564 19.103 42.667 42.667 42.667h256c23.565 0 42.667-19.103 42.667-42.667v-168.078z" />
<glyph unicode="&#xe983;" d="M870.797 336.708c86.353 49.062 86.353 173.513 0 222.579l-551.564 313.388c-85.33 48.483-191.233-13.149-191.233-111.29v-626.776c0-98.142 105.903-159.774 191.233-111.292l551.564 313.391zM448 597.333h64v-298.667h-64v298.667zM298.667 554.667h64v-213.333h-64v213.333zM597.333 512h64v-128h-64v128z" />
<glyph unicode="&#xe984;" d="M448 597.333h64v-298.667h-64v298.667z" />
<glyph unicode="&#xe985;" d="M298.667 554.667h64v-213.333h-64v213.333z" />
<glyph unicode="&#xe986;" d="M661.333 512h-64v-128h64v128z" />
<glyph unicode="&#xe987;" glyph-name="format_pdf_2_fill" d="M511.377 483.436c2.4 8.524 7.487 16.794 18.484 23.531-0.138-1.084-0.305-2.238-0.502-3.464-2.35-14.532-8.327-34.342-17.020-57.167-3.302 13.94-3.891 26.695-0.962 37.1zM503.997 326.3c3.002 5.658 5.959 11.356 8.861 17.069 2.772-5.563 5.547-10.938 8.321-16.131-5.869-0.228-11.596-0.542-17.182-0.938zM631.695 252.954c-8.239 5.933-17.526 14.4-27.564 26.029 22.516-5.21 37.277-13.062 46.096-20.499 10.918-9.21 11.187-14.886 10.874-16.813-0.717-0.205-1.997-0.39-4.096-0.205-5.024 0.429-13.632 3.078-25.31 11.488zM365.578 226.746c5.615 11.155 20.964 26.88 52.543 39.187-5.959-8.602-11.751-16.397-17.268-23.206-10.118-12.486-18.372-20.467-24.243-24.378-8.013-5.338-12.004-5.222-13.388-4.858-0.495 1.069-1.791 5.024 2.355 13.254zM362.643 213.747c0 0 0.101-0.019 0.278-0.16-0.194 0.077-0.278 0.16-0.278 0.16zM170.664 832.005v-767.999c0-23.565 19.102-42.669 42.666-42.669h597.332c23.565 0 42.669 19.104 42.669 42.669v554.666l-256.001 256h-384c-23.564 0-42.666-19.103-42.666-42.667zM571.478 496.693c-4.474-27.672-18.284-66.067-35.823-105.504 0.984-1.67 1.876-3.135 2.643-4.371 0.954-1.537 1.711-2.71 2.211-3.471 0.25-0.381 0.435-0.657 0.547-0.824l0.113-0.167 0.013-0.020 1.001-1.455 0.755-1.627c9.325-20.079 18.52-37.458 27.439-52.447 50.198-3.502 85.462-17.239 107.363-35.716 23.904-20.166 37.12-53.754 15.629-77.792-10.138-11.341-25.011-15.642-40.045-14.342-14.863 1.286-30.689 7.936-46.564 19.373-19.044 13.715-39.541 35.277-60.479 66.682h-1.802c-25.181 0-47.1-1.555-66.129-4.211-3.26-5.427-6.53-10.746-9.797-15.917-11.594-18.349-23.315-35.149-34.55-49.018-10.985-13.555-22.472-25.53-33.752-33.037-21.562-14.349-48.036-17.837-66.375-0.474-17.441 16.512-17.048 42.451-6.408 63.584 15.74 31.258 55.165 60.006 124.097 73.562 12.846 22.508 25.34 46.57 36.482 70.206-5.6 11.475-11.478 25.482-15.616 40.511-5.352 19.437-8.363 42.62-2.125 64.78 6.57 23.341 22.746 43.126 50.685 55.306 6.692 2.918 14.966 5.273 23.707 4.029 9.976-1.419 17.825-7.139 22.568-15.116 4.169-7.012 5.427-14.811 5.729-21.249 0.315-6.723-0.335-13.967-1.517-21.274z" />
<glyph unicode="&#xe988;" glyph-name="github_duotone" d="M512.003 874.672c-235.733 0-426.667-190.934-426.667-426.667-0.048-89.569 28.109-176.882 80.479-249.541 52.369-72.666 126.291-126.995 211.276-155.283 21.334-3.712 29.312 9.088 29.312 20.314 0 10.112-0.554 43.686-0.554 79.443-107.179-19.757-134.912 26.112-143.446 50.131-4.821 12.288-25.6 50.138-43.733 60.288-14.933 7.981-36.267 27.738-0.555 28.25 33.622 0.55 57.6-30.938 65.622-43.738 38.4-64.512 99.754-46.374 124.245-35.2 3.755 27.738 14.933 46.381 27.221 57.050-94.933 10.662-194.133 47.488-194.133 210.687 0 46.421 16.512 84.779 43.733 114.688-4.266 10.667-19.2 54.4 4.267 113.067 0 0 35.712 11.178 117.333-43.776 34.733 9.64 70.621 14.492 106.667 14.421 36.267 0 72.533-4.779 106.667-14.379 81.576 55.467 117.332 43.691 117.332 43.691 23.469-58.667 8.531-102.4 4.269-113.067 27.174-29.866 43.731-67.712 43.731-114.645 0-163.756-99.712-200.024-194.644-210.687 15.445-13.312 28.799-38.912 28.799-78.938 0-57.043-0.554-102.912-0.554-117.331 0-11.181 8.021-24.493 29.356-20.224 84.691 28.595 158.291 83.034 210.426 155.642 52.141 72.614 80.192 159.747 80.218 249.138 0 235.733-190.931 426.667-426.666 426.667z" />
<glyph unicode="&#xe989;" glyph-name="information_fill" d="M512.003 21.338c235.639 0 426.666 191.027 426.666 426.668s-191.027 426.667-426.666 426.667c-235.642 0-426.667-191.025-426.667-426.667 0-235.64 191.025-426.668 426.667-426.668zM576.003 640.005c0-23.564-19.103-42.667-42.667-42.667s-42.666 19.103-42.666 42.667c0 23.564 19.102 42.667 42.666 42.667s42.667-19.103 42.667-42.667zM601.35 217.203c-23.21-9.427-44.323-16.141-63.262-20.422-18.937-4.186-36.91-6.368-53.923-6.368-16.753 0-29.407 4.538-38.049 13.613-8.636 9.075-12.914 22.253-12.914 39.706 0 4.448 0.44 9.946 1.314 16.576 0.868 6.547 2.53 16.493 4.972 29.67l36.824 184.548-56.284 8.726v24.084l117.796 26.002h30.108l-43.892-231.757c-1.311-7.149-2.267-12.915-2.883-17.453-0.609-4.448-0.873-8.115-0.873-11.078 0-12.218 2.882-21.645 8.725-27.923 5.763-6.368 14.138-9.594 25.134-9.594 4.889 0 11.344 0.781 19.458 2.355 8.028 1.568 17.279 4.013 27.748 7.411l0.001-28.096z" />
<glyph unicode="&#xe98a;" d="M128 789.333c-23.564 0-42.667-19.103-42.667-42.667v-597.333c0-23.565 19.103-42.667 42.667-42.667h352v-64h64v64h-64v554.667c0 70.692-57.308 128-128 128h-224z" />
<glyph unicode="&#xe98b;" d="M896 789.333c23.565 0 42.667-19.103 42.667-42.667v-597.333c0-23.565-19.102-42.667-42.667-42.667h-352v554.667c0 70.692 57.306 128 128 128h224zM773.333 469.333h-64v-170.667h64v170.667zM773.333 597.333h-64v-64h64v64z" />
<glyph unicode="&#xe98c;" glyph-name="warning_fill" d="M529.759 840.556l432.333-746.752c8.23-14.227-2.029-32.026-18.464-32.026h-864.663c-16.434 0-26.696 17.798-18.462 32.026l432.332 746.752c8.217 14.193 28.708 14.193 36.925 0zM553.965 232.447h-85.334v-85.338h85.334v85.338zM564.631 616.445h-106.666l10.666-298.667h85.334l10.666 298.667z" />
<glyph unicode="&#xe98d;" glyph-name="alarm_lamp_fill" d="M554.664 808.453v130.219h-85.334v-130.219c14.022 1.467 28.257 2.219 42.667 2.219s28.644-0.752 42.667-2.219zM895.366 771.037l-88.051-88.056c-19.565 20.799-41.299 39.532-64.845 55.836l92.557 92.559 60.339-60.339zM281.524 738.815c-23.546-16.303-45.281-35.037-64.843-55.837l-88.059 88.058 60.34 60.34 92.562-92.561zM917.331 106.669v-85.331h-810.667v85.331h64v298.669c0 188.513 152.82 341.334 341.333 341.334 188.515 0 341.334-152.82 341.334-341.334v-298.669h64zM543.997 400.005v176l-160-208h96v-175.999l160 207.999h-96z" />
<glyph unicode="&#xe98e;" glyph-name="warning_2_fill" d="M511.787 874.88c235.639 0 426.666-191.025 426.666-426.667 0-235.64-191.027-426.668-426.666-426.668-235.642 0-426.667 191.027-426.667 426.668s191.025 426.667 426.667 426.667zM554.454 298.877h-85.334v-85.331h85.334v85.331zM565.12 682.88h-106.666l10.666-298.667h85.334l10.666 298.667z" />
<glyph unicode="&#xe98f;" glyph-name="chevron_left_circle_fill" d="M511.787 874.88c235.639 0 426.666-191.025 426.666-426.667 0-235.64-191.027-426.668-426.666-426.668-235.642 0-426.667 191.027-426.667 426.668s191.025 426.667 426.667 426.667zM552.309 661.556l-211.189-211.19 211.197-211.195 60.339 60.339-150.856 150.856 150.849 150.85-60.34 60.34z" />
<glyph unicode="&#xe990;" d="M640 320l72.883-20.32c7.072-1.971 13.517-5.741 18.707-10.931l207.040-207.040-60.339-60.339-207.040 207.040c-5.19 5.19-8.96 11.635-10.931 18.707l-20.32 72.883z" />
<glyph unicode="&#xe991;" d="M426.662 277.338c-141.385 0-256 114.616-256 256.001s114.615 256 256 256c141.384 0 256.001-114.615 256.001-256s-114.616-256.001-256.001-256.001zM426.662 192.006c188.513 0 341.332 152.819 341.332 341.332s-152.819 341.334-341.332 341.334c-188.513 0-341.334-152.82-341.334-341.334s152.82-341.332 341.334-341.332z" />
<glyph unicode="&#xe992;" glyph-name="play_circle_fill" d="M511.787 874.88c235.639 0 426.666-191.025 426.666-426.667 0-235.64-191.027-426.668-426.666-426.668-235.642 0-426.667 191.027-426.667 426.668s191.025 426.667 426.667 426.667zM405.12 618.88v-341.334l298.664 170.668-298.664 170.667z" />
<glyph unicode="&#xe993;" glyph-name="format_word_fill" d="M213.331 874.672c-23.564 0-42.666-19.103-42.666-42.667v-298.667h384v-384.001h-384v-85.331c0-23.565 19.102-42.669 42.666-42.669h597.332c23.565 0 42.669 19.104 42.669 42.669v554.666l-256.001 256h-384zM454.148 469.338l-29.573-161.677-35.948 161.677h-52.771l-35.416-161.677-29.573 161.677h-61.802l54.896-257.831h64.281l33.823 146.977 34.531-146.977h64.458l54.719 257.831h-61.625z" />
<glyph unicode="&#xe994;" glyph-name="copy_fill" d="M362.667 682.672h490.664c23.565 0 42.669-19.103 42.669-42.667v-575.999c0-23.565-19.104-42.669-42.669-42.669h-447.998c-23.564 0-42.666 19.104-42.666 42.669v618.666zM170.667 874.672c-23.564 0-42.667-19.103-42.667-42.667v-554.668c0-23.565 19.103-42.669 42.667-42.669h128v512.003h298.666v85.333c0 23.564-19.102 42.667-42.666 42.667h-384z" />
<glyph unicode="&#xe995;" glyph-name="chevron_right_circle_fill" d="M512.003 21.338c235.639 0 426.666 191.027 426.666 426.668s-191.027 426.667-426.666 426.667c-235.642 0-426.667-191.025-426.667-426.667 0-235.64 191.025-426.668 426.667-426.668zM406.859 601.009l60.34 60.34 211.182-211.197-211.19-211.189-60.339 60.339 150.856 150.858-150.849 150.849z" />
<glyph unicode="&#xe996;" glyph-name="share_box_fill" d="M213.333 746.667v-597.336h597.336v213.336h85.331v-255.998c0-23.565-19.104-42.669-42.669-42.669h-682.664c-23.564 0-42.667 19.104-42.667 42.669v682.664c0 23.564 19.103 42.667 42.667 42.667h256v-85.333h-213.334zM853.331 832h-255.998v-85.333h152.99l-268.492-268.495 60.339-60.34 268.499 268.496v-152.995h85.331v256c0 23.564-19.104 42.667-42.669 42.667z" />
<glyph unicode="&#xe997;" glyph-name="up_3_fill" d="M170.664 874.672v-85.334h682.667v85.334h-682.667zM528.387 684.339c-8.529 10.234-24.248 10.234-32.778-0.001l-167.786-201.343c-11.58-13.895-1.699-34.991 16.388-34.991h125.118v-426.667h85.334v426.667h125.118c18.086 0 27.968 21.096 16.39 34.991l-167.786 201.343z" />
<glyph unicode="&#xe998;" glyph-name="close_duotone" d="M511.998 387.662l225.832-225.832 60.339 60.339-225.832 225.832 225.832 225.83-60.339 60.34-225.832-225.83-225.83 225.83-60.34-60.34 225.83-225.83-225.83-225.832 60.34-60.339 225.83 225.832z" />
<glyph unicode="&#xe999;" glyph-name="chevron_left_fill" d="M401.67 448.086l268.5 268.497-60.343 60.339-283.581-283.581c-24.993-24.993-24.993-65.516 0-90.509l283.581-283.581 60.343 60.339-268.5 268.496z" />
<glyph unicode="&#xe99a;" glyph-name="chevron_right_fill" d="M622.33 448.086l-268.497 268.497 60.34 60.339 283.58-283.581c24.992-24.993 24.992-65.516 0-90.509l-283.581-283.581-60.339 60.339 268.497 268.496z" />
<glyph unicode="&#xe99b;" glyph-name="chevron_up_duotone" d="M512.001 547.658l268.499-268.497 60.339 60.34-283.583 283.581c-24.994 24.993-65.516 24.994-90.51 0l-283.581-283.581 60.34-60.34 268.497 268.497z" />
<glyph unicode="&#xe99c;" glyph-name="chevron_down_fill" d="M512.001 348.342l268.499 268.497 60.339-60.34-283.583-283.583c-24.994-24.992-65.516-24.992-90.51 0l-283.581 283.583 60.34 60.34 268.497-268.497z" />
<glyph unicode="&#xe99d;" glyph-name="caret_down_fill" d="M495.942 274.342c8.499-9.715 23.61-9.715 32.109 0l251.654 287.604c12.070 13.794 2.272 35.381-16.058 35.381h-503.304c-18.329 0-28.125-21.588-16.055-35.381l251.653-287.604z" />
<glyph unicode="&#xe99e;" glyph-name="caret_up_fill" d="M495.942 621.652c8.499 9.713 23.61 9.713 32.109 0l251.654-287.604c12.070-13.793 2.272-35.38-16.058-35.38h-503.304c-18.329 0-28.125 21.587-16.055 35.38l251.653 287.604z" />
<glyph unicode="&#xe99f;" glyph-name="menu_fill" d="M128 832h768v-85.334h-768v85.334zM128 490.666h768v-85.331h-768v85.331zM128 149.335h768v-85.335h-768v85.335z" />
<glyph unicode="&#xe9a0;" glyph-name="slash_fill" d="M606.41 789.333h92.285l-281.098-682.667h-92.284l281.097 682.667z" />
<glyph unicode="&#xe9a1;" d="M789.333 661.333c0-7.598-0.363-15.111-1.067-22.524 84.702-10.022 150.4-82.077 150.4-169.476 0-94.255-76.412-170.667-170.667-170.667h-341.333v0.7c-7.051-0.465-14.165-0.7-21.333-0.7h-128c-106.039 0-192 85.961-192 192s85.961 192 192 192h43.623c10.778 119.605 111.299 213.333 233.71 213.333 129.604 0 234.667-105.064 234.667-234.667z" />
<glyph unicode="&#xe9a2;" d="M469.333 225.792c-24.606-10.752-44.373-30.519-55.124-55.125h-243.542v-85.333h243.542c16.46-37.675 54.049-64 97.791-64s81.331 26.325 97.792 64h243.541v85.333h-243.541c-10.752 24.606-30.519 44.373-55.125 55.125v72.875h-85.333v-72.875zM554.667 128c0-23.565-19.102-42.667-42.667-42.667s-42.667 19.102-42.667 42.667c0 23.565 19.102 42.667 42.667 42.667s42.667-19.102 42.667-42.667z" />
<glyph unicode="&#xe9a3;" d="M555.904 849.247c-24.653 23.244-63.153 23.244-87.807 0l-433.365-408.579 58.538-62.090 418.73 394.782 418.729-394.782 58.542 62.090-433.367 408.579z" />
<glyph unicode="&#xe9a4;" d="M512 256c-47.128 0-85.333-38.205-85.333-85.335v-128h170.668v128c0 47.13-38.205 85.335-85.335 85.335z" />
<glyph unicode="&#xe9a5;" d="M512 773.36l320-301.699v-386.326c0-23.567-19.103-42.67-42.665-42.67h-554.669c-23.564 0-42.666 19.103-42.666 42.67v386.325l320 301.7zM512 256c-29.455 0-55.424-14.925-70.759-37.622zM441.241 218.378c-9.201-13.619-14.575-30.039-14.575-47.713v-128h170.669v128c0 11.141-2.135 21.78-6.016 31.534-12.544 31.519-43.331 53.801-79.319 53.801z" />
<glyph unicode="&#xe9a6;" d="M512 773.36l320-301.699v-386.326c0-23.567-19.103-42.67-42.665-42.67h-554.669c-23.564 0-42.666 19.103-42.666 42.67v386.325l320 301.7zM512 256c-29.455 0-55.424-14.925-70.759-37.622zM441.241 218.378c-9.201-13.619-14.575-30.039-14.575-47.713v-128h170.669v128c0 11.141-2.135 21.78-6.016 31.534-12.544 31.519-43.331 53.801-79.319 53.801z" />
<glyph unicode="&#xe9a7;" d="M555.904 849.247c-24.653 23.244-63.153 23.244-87.807 0l-433.365-408.579 58.538-62.090 418.73 394.782 418.729-394.782 58.542 62.090-433.367 408.579z" />
<glyph unicode="&#xe9a8;" d="M512 256c-47.128 0-85.333-38.205-85.333-85.335v-128h170.668v128c0 47.13-38.205 85.335-85.335 85.335z" />
</font>
</defs>
</svg>
