<svg width="164" height="44" viewBox="0 0 164 44" fill="none" xmlns="http://www.w3.org/2000/svg">
<path d="M17.7174 25.5337C17.7222 25.5337 17.727 25.5328 17.7314 25.5309L26.1799 20.6591C26.1817 20.6554 26.1826 20.6513 26.1826 20.6472C26.1826 20.6431 26.1817 20.639 26.1799 20.6353V10.8996C26.182 10.896 26.1831 10.8919 26.1831 10.8877C26.1831 10.8835 26.182 10.8794 26.1799 10.8758L17.7314 6H17.7035L9.25496 10.8758C9.25237 10.8792 9.25098 10.8834 9.25098 10.8877C9.25098 10.892 9.25237 10.8962 9.25496 10.8996V20.6353C9.25286 20.6389 9.25176 20.643 9.25176 20.6472C9.25176 20.6514 9.25286 20.6555 9.25496 20.6591L17.7035 25.5309C17.7079 25.5328 17.7127 25.5337 17.7174 25.5337Z" fill="#00A971"/>
<path d="M4 27.9014H31.4339V33.3807H4V27.9014Z" fill="#00A971"/>
<path d="M150.271 32.2686H149.185V33.285H150.271V32.2686Z" fill="#898989"/>
<path fill-rule="evenodd" clip-rule="evenodd" d="M55.181 18.34C55.181 21.3099 54.2701 23.8987 52.5518 25.7013L55.0736 29.8227H51.9869L50.4595 27.2538C49.1042 27.9362 47.6017 28.2757 46.0841 28.2424C40.1176 28.2424 36.9355 23.9066 36.9355 18.34C36.9355 12.7733 40.1176 8.4375 46.0841 8.4375C52.0506 8.4375 55.2009 12.7733 55.2009 18.34H55.181ZM48.9042 24.661L45.6903 19.2532H48.6377L50.8095 22.8267C51.583 21.468 51.9631 19.9215 51.9074 18.3598C51.9074 14.5839 50.1135 11.3717 46.0642 11.3717C42.0149 11.3717 40.1971 14.564 40.1971 18.34C40.1971 22.1159 41.995 25.3241 46.0682 25.3241C47.0553 25.3538 48.033 25.1252 48.9042 24.661Z" fill="#3E3D49"/>
<path d="M57.1816 8.4375H60.2921V11.3519H57.1816V8.4375Z" fill="#3E3D49"/>
<path d="M60.24 27.8933H57.209V14.2705H60.24V27.8933Z" fill="#3E3D49"/>
<path d="M72.5992 19.9525V27.8935H75.6302V19.3847C75.6302 15.986 73.9118 13.9253 70.5069 13.9253C68.6852 13.9253 67.3606 14.5407 66.5651 15.5849H65.9207V14.2707H62.9971V27.8935H66.0281V20.5798C66.0281 18.4556 67.3964 16.6093 69.5682 16.6093C71.5809 16.6093 72.5992 17.733 72.5992 19.9525Z" fill="#3E3D49"/>
<path fill-rule="evenodd" clip-rule="evenodd" d="M90.8245 14.2705V27.2262C90.8245 31.0816 88.2231 33.4877 84.2295 33.4877C80.6059 33.4877 78.1675 31.9631 77.8652 29.1003H80.8684C81.1627 30.4622 82.3441 30.9982 84.1937 30.9982C86.7673 30.9982 87.8134 29.41 87.8134 27.0277V26.1026H87.1332C86.4928 27.0396 85.2836 27.7623 83.3266 27.7623C79.5995 27.7623 77.3203 24.8161 77.3203 20.8576C77.3203 16.899 79.6711 13.9409 83.3425 13.9409C85.3791 13.9409 86.64 14.735 87.2565 15.6006H87.9009V14.2705H90.8245ZM87.9009 20.8576C87.9009 18.4991 86.64 16.49 84.0943 16.49C81.7355 16.49 80.3672 18.2807 80.3672 20.8576C80.3672 23.4344 81.7355 25.1934 84.0943 25.1934C86.64 25.1934 87.9009 23.1843 87.9009 20.8576Z" fill="#3E3D49"/>
<path d="M101.851 28.2345C106.178 28.2345 109.01 25.7251 109.639 22.112H106.274C105.769 24.1329 104.213 25.3241 101.851 25.3241C97.8963 25.3241 96.0825 22.1159 96.0825 18.34C96.0825 14.564 97.9043 11.3559 101.847 11.3559C104.098 11.3559 105.415 12.2651 106.031 14.0836H109.408C108.716 10.6849 105.928 8.4375 101.851 8.4375C96.0984 8.4375 92.8447 12.5788 92.8447 18.332C92.8447 24.0853 96.0865 28.2345 101.851 28.2345Z" fill="#3E3D49"/>
<path d="M114.595 8.4375H111.564V27.897H114.595V8.4375Z" fill="#3E3D49"/>
<path fill-rule="evenodd" clip-rule="evenodd" d="M123.386 28.2625C127.674 28.2625 130.275 25.2648 130.275 21.0878C130.275 16.9426 127.678 13.9409 123.386 13.9409C119.094 13.9409 116.492 16.9307 116.492 21.0878C116.492 25.245 119.098 28.2625 123.386 28.2625ZM123.386 16.5138C126.051 16.5138 127.244 18.7055 127.244 21.0878C127.244 23.5257 126.055 25.6936 123.386 25.6936C120.717 25.6936 119.523 23.4702 119.523 21.0878C119.523 18.7055 120.721 16.5138 123.386 16.5138Z" fill="#3E3D49"/>
<path d="M135.016 14.2705V22.2115C135.016 24.431 136.035 25.5547 138.043 25.5547C140.215 25.5547 141.583 23.7084 141.583 21.5842V14.2705H144.614V27.8933H141.691V26.583H141.046C140.251 27.6273 138.93 28.2427 137.109 28.2427C133.704 28.2427 131.985 26.182 131.985 22.7833V14.2705H135.016Z" fill="#3E3D49"/>
<path fill-rule="evenodd" clip-rule="evenodd" d="M156.989 15.5845H156.345C155.613 14.6196 154.443 13.9208 152.431 13.9208C148.755 13.9208 146.532 16.998 146.532 21.0677C146.532 25.1375 148.731 28.2424 152.431 28.2424C154.463 28.2424 155.7 27.5198 156.452 26.5827H157.096V27.893H160.02V8.4375H156.989V15.5845ZM153.27 16.5135C155.923 16.5135 157.049 18.7053 157.049 21.0876C157.049 23.5255 155.923 25.6934 153.27 25.6934C150.776 25.6934 149.543 23.7081 149.543 21.0876C149.543 18.467 150.776 16.5135 153.27 16.5135Z" fill="#3E3D49"/>
</svg>
