<svg width="160" height="119" viewBox="0 0 160 119" fill="none" xmlns="http://www.w3.org/2000/svg">
<path d="M64.4281 23.7822C75.525 12.8717 103.826 21.0409 108.836 22.4834C120.725 25.9151 140.833 31.7122 148.674 48.3103C154.51 60.6701 151.565 74.8073 142.628 83.161C87.7119 118.162 -0.670393 78.0066 29.8308 52.6923C38.1247 45.8083 48.4768 48.0437 55.7754 40.3326C60.9007 34.9252 58.5919 29.5178 64.4281 23.7822Z" fill="#F6F9FA"/>
<path d="M109.452 53.5126C120.184 53.5126 128.884 44.7286 128.884 33.8929C128.884 23.0572 120.184 14.2731 109.452 14.2731C98.7207 14.2731 90.021 23.0572 90.021 33.8929C90.021 44.7286 98.7207 53.5126 109.452 53.5126Z" fill="#ADB5BC"/>
<path d="M147.678 75.0807C135.694 75.0807 115.647 68.9282 95.3554 59.0294C67.9687 45.6647 42.3897 26.086 46.9936 16.4607C48.341 13.6442 51.9632 12.2155 57.752 12.2155C69.7358 12.2155 89.7833 18.368 110.075 28.2667C124.787 35.4447 137.908 43.7164 147.014 51.5507C153.683 57.293 161.084 65.2913 158.43 70.8286C157.089 73.652 153.467 75.0807 147.678 75.0807Z" fill="#ADB5BC"/>
<path d="M57.7593 13.2477C69.188 13.2477 88.7886 19.0243 109.635 29.1965C139.906 43.9625 161.341 62.4065 157.523 70.3911C156.331 72.8726 152.838 74.0553 147.679 74.0553C136.25 74.0553 116.649 68.2787 95.8029 58.1065C65.5319 43.3405 44.0897 24.8965 47.9082 16.9119C49.0998 14.4304 52.5934 13.2477 57.7593 13.2477ZM57.7593 11.1969C51.544 11.1969 47.6171 12.817 46.087 16.0164C43.1553 22.1415 50.8128 30.55 57.7593 36.5248C66.9334 44.4137 80.1291 52.7333 94.9227 59.9523C115.343 69.9194 135.559 76.1061 147.685 76.1061C153.901 76.1061 157.828 74.486 159.358 71.2866C162.289 65.1614 154.632 56.753 147.685 50.7782C138.511 42.8893 125.316 34.5697 110.522 27.3507C90.0953 17.3904 69.8785 11.1969 57.7593 11.1969Z" fill="white"/>
<path d="M119.763 54.6339C120.907 52.2441 114.486 46.7218 105.423 42.2996C96.3594 37.8774 88.0848 36.2298 86.9411 38.6197C85.7973 41.0095 92.2175 46.5317 101.281 50.9539C110.345 55.3761 118.619 57.0237 119.763 54.6339Z" fill="#858F99"/>
<path d="M115.361 52.4863C116.199 50.7356 111.502 46.6929 104.869 43.4567C98.2362 40.2206 92.1802 39.0164 91.3423 40.7671C90.5044 42.5178 95.202 46.5605 101.835 49.7967C108.467 53.0328 114.523 54.237 115.361 52.4863Z" fill="#2EC295"/>
<path d="M91.3409 40.7701L25.6533 117H118.64L115.363 52.4872L91.3409 40.7701Z" fill="#E2E7EB"/>
<path d="M148.205 25.7168L135.206 21.451" stroke="#E2E7EB" stroke-width="3"/>
<path d="M131.195 1L128.446 10.01" stroke="#E2E7EB" stroke-width="3"/>
<path d="M147.186 10.0894L136.333 12.6051" stroke="#E2E7EB" stroke-width="3"/>
<path d="M121.686 24.8595C121.686 24.8595 123.188 26.2416 123.939 29.4042" stroke="white" stroke-width="3" stroke-linecap="round"/>
<path d="M0 117H145.722" stroke="#ADB5BC" stroke-width="3" stroke-miterlimit="10"/>
<path d="M111.111 104.039V60.5608" stroke="white" stroke-width="3" stroke-linecap="round"/>
<path d="M56.8659 91.6721L41.9775 109.726" stroke="white" stroke-width="3" stroke-linecap="round"/>
<path d="M101.28 50.9559C106.798 53.6493 112.018 55.3105 115.525 55.6592L115.363 52.4872C116.202 50.7371 111.504 46.697 104.869 43.4566C98.2335 40.2231 92.1807 39.0131 91.3412 40.7632L89.3032 43.1285C91.8422 45.5827 96.1347 48.447 101.28 50.9559Z" fill="white"/>
</svg>
