<svg width="287" height="328" viewBox="0 0 287 328" fill="none" xmlns="http://www.w3.org/2000/svg">
<path d="M143.065 164.259V82.1896L214.238 41.1547L285.42 82.1896V164.259L214.238 205.284L143.065 164.259ZM143.945 82.6987V163.8L214.238 204.326L284.541 163.8V82.7486L214.238 42.1628L143.945 82.6987Z" fill="#00AA71"/>
<path d="M72.3223 123.474V41.4042L143.505 0.369263L214.678 41.4042V123.474L143.505 164.509L72.3223 123.474ZM73.2019 41.9133V122.965L143.505 163.501L213.838 122.965V41.9133L143.545 1.38739L73.2019 41.9133Z" fill="#00AA71"/>
<path d="M1.58936 164.259V82.1896L72.7621 41.1547L143.945 82.1896V164.259L72.7621 205.284L1.58936 164.259ZM2.46902 82.6987V163.8L72.7621 204.326L143.065 163.8V82.7486L72.7621 42.2127L2.46902 82.6987Z" fill="#00AA71"/>
<path d="M1.58936 245.82V163.8L72.7621 122.765L143.945 163.8V245.87L72.7621 286.905L1.58936 245.82ZM2.46902 164.259V245.311L72.7621 285.837L143.065 245.311V164.259L72.7621 123.724L2.46902 164.259Z" fill="#00AA71"/>
<path d="M72.3223 286.576V204.526L143.505 163.501L214.678 204.526V286.576L143.505 327.611L72.3223 286.576ZM73.2019 205.015V286.077L143.505 326.603L213.838 286.097V205.035L143.545 164.509L73.2019 205.015Z" fill="#00AA71"/>
<path d="M143.065 245.82V163.8L214.238 122.765L285.42 163.8V245.87L214.238 286.855L143.065 245.82ZM143.945 164.259V245.311L214.238 285.837L284.541 245.311V164.259L214.238 123.724L143.945 164.259Z" fill="#00AA71"/>
<path d="M54.6489 154.058V51.6055L143.505 0.369263L232.361 51.6055V154.058L143.505 205.284L54.6489 154.058ZM55.5186 52.1046V153.549L143.485 204.276L231.451 153.549V52.1046L143.485 1.38739L55.5186 52.1046Z" fill="#00AA71"/>
<path d="M1.58936 184.642V82.1897L90.4453 30.9634L179.311 82.1897V184.642L90.4453 235.879L1.58936 184.642ZM2.46902 82.6987V184.143L90.4353 234.86L178.402 184.143V82.6987L90.4353 31.9715L2.46902 82.6987Z" fill="#00AA71"/>
<path d="M1.58936 245.82V143.358L90.4453 92.1313L179.311 143.358V245.82L90.4453 297.047L1.58936 245.82ZM2.46902 143.837V245.311L90.4353 296.038L178.402 245.311V143.837L90.4353 93.1096L2.46902 143.837Z" fill="#00AA71"/>
<path d="M54.6489 276.404V173.942L143.505 122.715L232.361 173.942V276.404L143.505 327.631L54.6489 276.404ZM55.5186 174.451V275.895L143.485 326.622L231.451 275.895V174.451L143.485 123.724L55.5186 174.451Z" fill="#00AA71"/>
<path d="M107.699 245.82V143.358L196.555 92.1313L285.421 143.358V245.82L196.555 297.047L107.699 245.82ZM108.578 143.837V245.311L196.545 296.038L284.511 245.311V143.837L196.545 93.1096L108.578 143.837Z" fill="#00AA71"/>
<path d="M107.699 184.642V82.1897L196.555 30.9634L285.421 82.1897V184.642L196.555 235.879L107.699 184.642ZM108.578 82.6987V184.143L196.545 234.86L284.511 184.143V82.6987L196.545 31.9715L108.578 82.6987Z" fill="#00AA71"/>
<path d="M142.745 82H285.74L214.238 205.654L142.745 82ZM214.238 203.907L284.211 82.8784H144.265L214.238 203.907Z" fill="#00AA71"/>
<path d="M1.26953 82H144.215L72.7621 205.654L1.26953 82ZM72.7621 203.907L142.735 82.8784H2.78894L72.7621 203.907Z" fill="#00AA71"/>
<path d="M72.0024 204.346H214.998L143.505 328L72.0024 204.346ZM143.505 326.253L213.478 205.225H73.5319L143.505 326.253Z" fill="#00AA71"/>
<path d="M142.745 246L214.238 122.346L285.74 246H142.745ZM144.265 245.122H284.211L214.238 124.093L144.265 245.122Z" fill="#00AA71"/>
<path d="M72.0024 123.654L143.505 0L214.998 123.654H72.0024ZM73.5219 122.785H213.468L143.495 1.7568L73.5219 122.785Z" fill="#00AA71"/>
<path d="M1.26953 246L72.7621 122.346L144.265 246H1.26953ZM2.78894 245.122H142.735L72.7621 124.093L2.78894 245.122Z" fill="#00AA71"/>
<path d="M70.7427 42.8317V40.496L72.7619 39.3281L74.7911 40.496V42.8317L72.7619 43.9896L70.7427 42.8317Z" fill="#00AA71"/>
<path d="M0 83.6071V81.2714L2.02922 80.1035L4.04845 81.2714V83.6071L2.02922 84.775L0 83.6071Z" fill="#00AA71"/>
<path d="M0 165.168V162.832L2.02922 161.664L4.04845 162.832V165.168L2.02922 166.336L0 165.168Z" fill="#00AA71"/>
<path d="M0 246.729V244.393L2.02922 243.225L4.04845 244.393V246.729L2.02922 247.897L0 246.729Z" fill="#00AA71"/>
<path d="M70.7427 287.514V285.178L72.7619 284.01L74.7911 285.178V287.514L72.7619 288.682L70.7427 287.514Z" fill="#00AA71"/>
<path d="M212.218 287.514V285.178L214.237 284.01L216.267 285.178V287.514L214.237 288.682L212.218 287.514Z" fill="#00AA71"/>
<path d="M282.952 246.729V244.393L284.981 243.225L287 244.393V246.729L284.981 247.897L282.952 246.729Z" fill="#00AA71"/>
<path d="M282.952 165.168V162.832L284.981 161.664L287 162.832V165.168L284.981 166.336L282.952 165.168Z" fill="#00AA71"/>
<path d="M282.952 83.6071V81.2714L284.981 80.1035L287 81.2714V83.6071L284.981 84.775L282.952 83.6071Z" fill="#00AA71"/>
<path d="M212.218 42.8317V40.496L214.237 39.3281L216.267 40.496V42.8317L214.237 43.9896L212.218 42.8317Z" fill="#00AA71"/>
<path d="M141.476 83.6071V81.2714L143.505 80.1035L145.524 81.2714V83.6071L143.505 84.775L141.476 83.6071Z" fill="#00AA71"/>
<path d="M141.476 165.168V162.832L143.505 161.664L145.524 162.832V165.168L143.505 166.336L141.476 165.168Z" fill="#00AA71"/>
<path d="M141.476 246.729V244.393L143.505 243.225L145.524 244.393V246.729L143.505 247.897L141.476 246.729Z" fill="#00AA71"/>
<path d="M212.218 205.953V203.617L214.237 202.45L216.267 203.617V205.953L214.237 207.121L212.218 205.953Z" fill="#00AA71"/>
<path d="M212.218 124.392V122.057L214.237 120.889L216.267 122.057V124.392L214.237 125.56L212.218 124.392Z" fill="#00AA71"/>
<path d="M71.1626 124.742V122.406L73.1918 121.238L75.221 122.406V124.742L73.1918 125.91L71.1626 124.742Z" fill="#00AA71"/>
<path d="M70.7427 205.953V203.617L72.7619 202.45L74.7911 203.617V205.953L72.7619 207.121L70.7427 205.953Z" fill="#00AA71"/>
</svg>
