<svg width="462" height="120" viewBox="0 0 154 40" fill="none" xmlns="http://www.w3.org/2000/svg">
<path d="M22.9957 25.4472L16.3291 21.6006V29.2972L22.9957 25.4472Z" fill="#00A971"/>
<path d="M22.9957 6.70795L16.3291 2.86133V10.558L22.9957 6.70795Z" fill="#00A971"/>
<path d="M6.76789 16.0792L13.0427 12.4554V1L0 8.53114V23.6272L13.0427 31.1583V19.7029L6.76789 16.0792Z" fill="#00A971"/>
<path d="M13.0869 16.0792L26.1094 23.5968V8.56152L13.0869 16.0792Z" fill="#00A971"/>
<path d="M109.934 8.09199H108.604C108.533 8.09243 108.463 8.10686 108.398 8.13447C108.333 8.16208 108.274 8.2023 108.224 8.25284C108.174 8.30338 108.135 8.36322 108.109 8.42893C108.082 8.49464 108.069 8.56492 108.07 8.63572V14.8464H103.788V8.63572C103.791 8.5643 103.78 8.49298 103.754 8.4262C103.729 8.35942 103.69 8.29862 103.64 8.2476C103.59 8.19658 103.53 8.15643 103.463 8.12965C103.397 8.10288 103.326 8.09005 103.254 8.09199H101.924C101.783 8.09287 101.649 8.14902 101.55 8.24826C101.451 8.34751 101.394 8.48186 101.394 8.62221V23.4819C101.395 23.6219 101.452 23.7558 101.551 23.8548C101.65 23.9539 101.784 24.0103 101.924 24.0121H103.254C103.325 24.0139 103.395 24.0015 103.46 23.9755C103.525 23.9496 103.585 23.9106 103.635 23.8611C103.684 23.8115 103.724 23.7524 103.75 23.6872C103.776 23.622 103.789 23.5522 103.788 23.4819V17.2273H108.07V23.4954C108.072 23.636 108.129 23.7704 108.229 23.8695C108.328 23.9687 108.463 24.0247 108.604 24.0256H109.934C110.004 24.027 110.074 24.0142 110.139 23.988C110.204 23.9619 110.263 23.9229 110.312 23.8734C110.362 23.8238 110.401 23.7648 110.427 23.6999C110.453 23.6349 110.466 23.5654 110.465 23.4954V8.63572C110.468 8.56459 110.457 8.49356 110.431 8.42701C110.406 8.36047 110.367 8.29984 110.317 8.24886C110.268 8.19789 110.208 8.15766 110.142 8.13068C110.076 8.1037 110.006 8.09053 109.934 8.09199Z" fill="#443D4E"/>
<path d="M77.8482 22.1646C77.8464 22.0236 77.7896 21.8889 77.6899 21.7892C77.5902 21.6895 77.4555 21.6327 77.3146 21.631H71.3065V17.2643H77.3146C77.385 17.2656 77.455 17.2528 77.5204 17.2264C77.5857 17.2001 77.6451 17.1609 77.6949 17.111C77.7448 17.0612 77.784 17.0018 77.8103 16.9365C77.8367 16.8711 77.8495 16.8011 77.8482 16.7307V15.4C77.8464 15.2591 77.7896 15.1244 77.6899 15.0247C77.5902 14.925 77.4555 14.8682 77.3146 14.8664H71.3065V10.4997H77.3146C77.385 10.5011 77.455 10.4883 77.5204 10.4619C77.5857 10.4356 77.6451 10.3963 77.6949 10.3465C77.7448 10.2967 77.784 10.2373 77.8103 10.172C77.8367 10.1066 77.8495 10.0366 77.8482 9.96614V8.63553C77.849 8.56473 77.8359 8.49445 77.8096 8.42874C77.7832 8.36303 77.7441 8.30319 77.6945 8.25265C77.6449 8.20211 77.5858 8.16189 77.5206 8.13428C77.4554 8.10667 77.3854 8.09224 77.3146 8.0918H69.4423C69.302 8.09268 69.1676 8.14883 69.0684 8.24807C68.9691 8.34732 68.913 8.48167 68.9121 8.62202V23.4817C68.913 23.622 68.9691 23.7564 69.0684 23.8556C69.1676 23.9549 69.302 24.011 69.4423 24.0119H77.3146C77.3848 24.0137 77.4548 24.0013 77.5201 23.9753C77.5855 23.9494 77.6449 23.9105 77.6948 23.8609C77.7446 23.8113 77.7839 23.7522 77.8103 23.687C77.8367 23.6218 77.8496 23.552 77.8482 23.4817V22.1646Z" fill="#443D4E"/>
<path d="M121.866 22.1646C121.866 22.0239 121.809 21.8892 121.71 21.7894C121.611 21.6896 121.477 21.6327 121.336 21.631H115.325V17.2643H121.336C121.406 17.2652 121.476 17.252 121.541 17.2254C121.606 17.1989 121.665 17.1596 121.714 17.1098C121.764 17.06 121.803 17.0008 121.829 16.9357C121.855 16.8705 121.868 16.8008 121.866 16.7307V15.4C121.865 15.2591 121.808 15.1244 121.708 15.0247C121.608 14.925 121.474 14.8682 121.333 14.8664H115.325V10.4997H121.333C121.403 10.5011 121.473 10.4883 121.539 10.4619C121.604 10.4356 121.663 10.3963 121.713 10.3465C121.763 10.2967 121.802 10.2373 121.829 10.172C121.855 10.1066 121.868 10.0366 121.866 9.96614V8.63553C121.867 8.56473 121.854 8.49445 121.828 8.42874C121.801 8.36303 121.762 8.30319 121.713 8.25265C121.663 8.20211 121.604 8.16189 121.539 8.13428C121.474 8.10667 121.404 8.09224 121.333 8.0918H113.474C113.333 8.09267 113.199 8.14871 113.099 8.24786C112.999 8.34701 112.942 8.48136 112.94 8.62202V23.4817C112.94 23.5525 112.953 23.6227 112.979 23.6884C113.005 23.7542 113.045 23.814 113.094 23.8645C113.144 23.9151 113.203 23.9553 113.268 23.9829C113.333 24.0105 113.403 24.025 113.474 24.0254H121.346C121.416 24.0268 121.486 24.014 121.551 23.9878C121.616 23.9617 121.675 23.9227 121.724 23.8732C121.774 23.8237 121.813 23.7647 121.839 23.6997C121.865 23.6347 121.878 23.5652 121.877 23.4952L121.866 22.1646Z" fill="#443D4E"/>
<path d="M144.543 22.1646C144.542 22.0236 144.485 21.8889 144.385 21.7892C144.286 21.6895 144.151 21.6327 144.01 21.631H138.002V17.2643H144.01C144.08 17.2656 144.15 17.2528 144.216 17.2264C144.281 17.2001 144.34 17.1609 144.39 17.111C144.44 17.0612 144.479 17.0018 144.506 16.9365C144.532 16.8711 144.545 16.8011 144.543 16.7307V15.4C144.542 15.2591 144.485 15.1244 144.385 15.0247C144.286 14.925 144.151 14.8682 144.01 14.8664H138.002V10.4997H144.01C144.08 10.5011 144.15 10.4883 144.216 10.4619C144.281 10.4356 144.34 10.3963 144.39 10.3465C144.44 10.2967 144.479 10.2373 144.506 10.172C144.532 10.1066 144.545 10.0366 144.543 9.96614V8.63553C144.544 8.56473 144.531 8.49445 144.505 8.42874C144.478 8.36303 144.439 8.30319 144.39 8.25265C144.34 8.20211 144.281 8.16189 144.216 8.13428C144.151 8.10667 144.081 8.09224 144.01 8.0918H136.138C135.997 8.09268 135.863 8.14883 135.764 8.24807C135.664 8.34732 135.608 8.48167 135.607 8.62202V23.4817C135.608 23.622 135.664 23.7564 135.764 23.8556C135.863 23.9549 135.997 24.011 136.138 24.0119H144.01C144.079 24.0137 144.148 24.0017 144.212 23.9766C144.277 23.9514 144.336 23.9137 144.385 23.8656C144.435 23.8175 144.474 23.7599 144.502 23.6963C144.529 23.6327 144.543 23.5643 144.543 23.4952V22.1646Z" fill="#443D4E"/>
<path d="M82.1945 12.1107V13.0192C82.1945 13.6946 82.87 14.1201 83.6298 14.4308L86.8111 15.7817C88.0067 16.3085 88.8375 17.2407 88.8375 18.676V20.3646C88.8375 21.7762 85.8723 24.1436 84.2918 24.1436C83.2178 24.1436 81.59 23.377 80.3236 22.6847C80.2461 22.6491 80.1765 22.5985 80.1188 22.5358C80.0611 22.473 80.0165 22.3994 79.9876 22.3193C79.9587 22.2391 79.946 22.154 79.9503 22.0688C79.9547 21.9837 79.9759 21.9003 80.0129 21.8235L80.4181 21.0096C80.4539 20.9356 80.505 20.8699 80.5679 20.817C80.6308 20.7641 80.7042 20.725 80.7833 20.7024C80.8623 20.6797 80.9453 20.674 81.0267 20.6857C81.1081 20.6973 81.1861 20.726 81.2557 20.7698C82.2688 21.2967 83.6467 21.9417 84.2951 21.9417C85.0145 21.9417 86.5207 20.7225 86.5207 20.0302V18.9732C86.5207 18.1592 85.8993 17.7067 85.0381 17.3724L82.0662 16.1296C80.9179 15.65 79.8643 14.6672 79.8643 13.3299V11.7764C79.8643 10.2195 82.9983 7.97363 84.5045 7.97363C85.5177 7.97363 87.1354 8.71324 88.2194 9.28736C88.2934 9.32338 88.3595 9.37364 88.414 9.43527C88.4685 9.49691 88.5103 9.56869 88.5369 9.64651C88.5636 9.72433 88.5746 9.80665 88.5694 9.88874C88.5642 9.97084 88.5428 10.0511 88.5065 10.1249L88.1215 10.9388C88.0419 11.0804 87.9097 11.1849 87.7536 11.2298C87.5975 11.2746 87.43 11.2563 87.2873 11.1786C86.4734 10.7936 85.109 10.1654 84.5113 10.1654C83.819 10.1654 82.1911 11.3137 82.1911 12.1039" fill="#443D4E"/>
<path d="M128.799 17.5886H126.55V23.4953C126.553 23.568 126.54 23.6404 126.513 23.7078C126.485 23.7751 126.444 23.8359 126.391 23.886C126.338 23.9361 126.276 23.9745 126.207 23.9986C126.138 24.0226 126.065 24.0318 125.993 24.0256H124.71C124.638 24.0278 124.567 24.0158 124.5 23.9903C124.433 23.9648 124.372 23.9263 124.32 23.8769C124.268 23.8276 124.227 23.7685 124.198 23.703C124.169 23.6375 124.154 23.5669 124.152 23.4953V9.21656C124.152 8.66271 124.808 8.10547 125.338 8.10547H129.211C130.978 8.10547 133.321 10.8579 133.321 12.6748C133.321 13.8838 132.261 15.7143 131.123 16.3897C132.041 16.876 133.301 18.156 133.301 19.3414V23.4953C133.299 23.636 133.243 23.7703 133.143 23.8695C133.043 23.9686 132.908 24.0247 132.768 24.0256H131.437C131.296 24.0247 131.162 23.9686 131.062 23.8695C130.962 23.7703 130.905 23.636 130.903 23.4953V19.7196C130.903 18.872 129.718 17.5886 128.799 17.5886ZM128.897 10.1858H126.55V15.5218H128.914C129.907 15.5218 131.069 13.7555 131.069 12.82C131.069 11.8845 129.856 10.2061 128.891 10.2061" fill="#443D4E"/>
<path d="M95.3579 17.5886H93.1087V23.4953C93.1114 23.568 93.0986 23.6404 93.0712 23.7078C93.0437 23.7751 93.0023 23.8359 92.9496 23.886C92.8969 23.9361 92.8342 23.9745 92.7656 23.9986C92.6969 24.0226 92.624 24.0318 92.5515 24.0256H91.2682C91.1966 24.0278 91.1254 24.0158 91.0585 23.9903C90.9917 23.9648 90.9306 23.9263 90.8787 23.8769C90.8269 23.8276 90.7854 23.7685 90.7566 23.703C90.7278 23.6375 90.7122 23.5669 90.7109 23.4953V9.21656C90.7109 8.66271 91.3661 8.10547 91.8963 8.10547H95.77C97.5362 8.10547 99.7719 10.9457 99.7719 12.7592C99.7719 13.9683 98.8736 15.5961 97.8402 16.5383C97.1778 17.1934 96.2893 17.5693 95.3579 17.5886ZM95.4559 10.1858H93.1087V15.5218H95.4728C96.4623 15.5218 97.4991 13.7555 97.4991 12.82C97.4991 11.8845 96.4285 10.2061 95.4728 10.2061" fill="#443D4E"/>
<path d="M50.7758 24.1672C49.1852 24.1672 46.2031 22.1409 46.2031 20.4118V8.74022C46.2092 8.59688 46.2708 8.4615 46.3747 8.3626C46.4786 8.2637 46.6169 8.20899 46.7604 8.21H48.0369C48.108 8.20821 48.1788 8.22055 48.245 8.2463C48.3113 8.27206 48.3718 8.31073 48.423 8.36005C48.4742 8.40938 48.5151 8.46838 48.5433 8.53364C48.5716 8.5989 48.5866 8.66912 48.5874 8.74022V20.0977C48.5874 20.9454 50.0295 21.9687 50.7758 21.9687C51.5222 21.9687 52.9744 20.8171 52.9744 19.9694V8.60851C52.974 8.5411 52.9868 8.47426 53.0122 8.41181C53.0376 8.34935 53.075 8.29252 53.1224 8.24453C53.1697 8.19655 53.2261 8.15837 53.2882 8.13216C53.3503 8.10596 53.4169 8.09224 53.4844 8.0918H54.8082C54.9505 8.09163 55.0875 8.14626 55.1906 8.24435C55.2937 8.34245 55.3551 8.47648 55.3621 8.61864V20.2835C55.3621 21.9721 52.3699 24.1672 50.7758 24.1672Z" fill="#443D4E"/>
<path d="M64.6426 15.7985C65.747 15.0725 66.8682 13.6608 66.8682 12.4821C66.8682 10.6652 64.3995 8.0918 62.6332 8.0918H58.8338C58.5386 8.11243 58.2595 8.2342 58.0436 8.43659C57.8277 8.63898 57.6881 8.90962 57.6484 9.20289V23.4952C57.6493 23.5666 57.6644 23.6371 57.6928 23.7026C57.7213 23.768 57.7625 23.8272 57.814 23.8766C57.8656 23.9259 57.9265 23.9645 57.9932 23.9901C58.0598 24.0156 58.1309 24.0276 58.2023 24.0254H62.7041C64.4704 24.0254 66.858 21.0535 66.858 19.2399C66.858 18.068 65.747 16.5382 64.6426 15.7985ZM60.0429 10.1857H62.309C63.2748 10.1857 64.4839 11.5703 64.4839 12.4923C64.4839 13.4143 63.3221 14.9745 62.3326 14.9745H60.0429V10.1857ZM62.309 21.9383H60.0429V16.6226H62.3326C63.3221 16.6226 64.4839 18.3112 64.4839 19.2399C64.4839 20.1686 63.2748 21.9417 62.309 21.9417" fill="#443D4E"/>
<path d="M38.804 16.1533L44.0724 10.0541C44.1192 10.0015 44.155 9.94006 44.1777 9.87343C44.2003 9.80679 44.2094 9.7363 44.2044 9.66609C44.1993 9.59589 44.1803 9.52741 44.1483 9.4647C44.1164 9.40198 44.0722 9.3463 44.0184 9.30094L43.0052 8.433C42.8978 8.34107 42.7586 8.29519 42.6176 8.3053C42.4766 8.31542 42.3453 8.38072 42.2521 8.48704L37.6524 13.8331V8.63563C37.6556 8.56451 37.6442 8.49348 37.6189 8.42693C37.5936 8.36039 37.5549 8.29976 37.5052 8.24878C37.4555 8.19781 37.3958 8.15758 37.3299 8.1306C37.2641 8.10361 37.1933 8.09045 37.1221 8.09191H35.7983C35.6576 8.09278 35.5229 8.14882 35.4231 8.24797C35.3234 8.34712 35.2665 8.48147 35.2647 8.62213V23.4818C35.2638 23.5526 35.2769 23.6229 35.3033 23.6886C35.3297 23.7543 35.3688 23.8141 35.4184 23.8647C35.468 23.9152 35.5271 23.9554 35.5923 23.983C35.6575 24.0106 35.7275 24.0251 35.7983 24.0255H37.1289C37.1989 24.0269 37.2685 24.0141 37.3334 23.988C37.3984 23.9618 37.4574 23.9228 37.5069 23.8733C37.5564 23.8238 37.5954 23.7648 37.6216 23.6998C37.6477 23.6349 37.6605 23.5653 37.6591 23.4953V18.4835L42.2656 23.8195C42.3588 23.9258 42.4901 23.9911 42.6311 24.0012C42.7721 24.0113 42.9114 23.9655 43.0187 23.8735L44.0319 23.0056C44.0856 22.9605 44.1297 22.9052 44.1616 22.8427C44.1935 22.7803 44.2126 22.7121 44.2176 22.6422C44.2226 22.5722 44.2136 22.502 44.191 22.4356C44.1683 22.3693 44.1326 22.3081 44.0859 22.2559L38.804 16.1533Z" fill="#443D4E"/>
<path d="M151.109 13.9009C150.537 13.9009 149.978 13.7313 149.502 13.4135C149.027 13.0957 148.656 12.644 148.438 12.1155C148.219 11.5871 148.162 11.0057 148.274 10.4448C148.385 9.88393 148.661 9.36883 149.066 8.96467C149.47 8.5605 149.986 8.28544 150.547 8.17428C151.108 8.06311 151.689 8.12085 152.217 8.34017C152.745 8.55949 153.197 8.93055 153.514 9.40639C153.831 9.88224 154 10.4415 154 11.0134C154 11.3929 153.925 11.7686 153.779 12.1192C153.634 12.4697 153.421 12.7882 153.153 13.0564C152.884 13.3245 152.565 13.5372 152.215 13.6821C151.864 13.827 151.488 13.9013 151.109 13.9009ZM151.109 8.56155C150.624 8.56222 150.15 8.70659 149.747 8.9764C149.345 9.24622 149.031 9.62938 148.846 10.0775C148.661 10.5255 148.613 11.0184 148.708 11.4938C148.803 11.9692 149.036 12.4057 149.38 12.7483C149.723 13.0909 150.159 13.324 150.635 13.4184C151.11 13.5127 151.603 13.464 152.051 13.2783C152.499 13.0926 152.882 12.7783 153.151 12.3752C153.42 11.9721 153.564 11.4982 153.564 11.0134C153.567 10.6904 153.505 10.3701 153.382 10.0711C153.26 9.77223 153.079 9.50071 152.851 9.27245C152.622 9.04419 152.35 8.86376 152.051 8.7417C151.752 8.61964 151.432 8.5584 151.109 8.56155ZM151.902 12.675L151.041 11.368H150.47V12.675H150.008V9.36533H151.359C151.497 9.35655 151.636 9.37625 151.766 9.42322C151.896 9.47019 152.016 9.54343 152.117 9.6384C152.218 9.73337 152.298 9.84805 152.353 9.97535C152.408 10.1026 152.436 10.2399 152.436 10.3785C152.44 10.6174 152.357 10.8497 152.201 11.0309C152.045 11.2122 151.828 11.3298 151.592 11.3612L152.476 12.6817L151.902 12.675ZM151.355 9.78072H150.47V10.9526H151.355C151.436 10.9587 151.517 10.9481 151.593 10.9215C151.67 10.8948 151.74 10.8526 151.799 10.7976C151.859 10.7426 151.906 10.676 151.938 10.6018C151.971 10.5276 151.987 10.4476 151.987 10.3667C151.987 10.2857 151.971 10.2057 151.938 10.1315C151.906 10.0574 151.859 9.9907 151.799 9.93569C151.74 9.88068 151.67 9.83853 151.593 9.81186C151.517 9.78519 151.436 9.77459 151.355 9.78072Z" fill="#443D4E"/>
<path d="M85.5547 33.6879C85.5547 31.952 86.7367 30.6484 88.4726 30.6484C90.2085 30.6484 91.3972 31.9554 91.3972 33.6879C91.4143 34.4897 91.1244 35.2678 90.5867 35.8628L91.1406 36.4538L90.6407 36.8929L90.0666 36.285C89.5891 36.5831 89.0355 36.7368 88.4726 36.7274C86.7367 36.7274 85.5547 35.4238 85.5547 33.6879ZM89.5904 35.7851L88.7529 34.8767L89.2662 34.4343L90.0936 35.336C90.4599 34.8658 90.6532 34.2838 90.6407 33.6879C90.6407 32.3134 89.7863 31.3002 88.4726 31.3002C87.1589 31.3002 86.3146 32.3134 86.3146 33.6879C86.3146 35.0624 87.1487 36.0756 88.4726 36.0756C88.8658 36.0803 89.2526 35.9763 89.5904 35.775" fill="#85818C"/>
<path d="M92.3936 31.3173C92.3944 31.1985 92.4421 31.0847 92.5261 31.0007C92.6101 30.9167 92.7239 30.869 92.8427 30.8682C92.9011 30.8686 92.9588 30.8806 93.0126 30.9034C93.0663 30.9263 93.115 30.9596 93.1558 31.0013C93.1966 31.0431 93.2288 31.0925 93.2504 31.1467C93.272 31.201 93.2827 31.2589 93.2818 31.3173C93.2827 31.3752 93.272 31.4327 93.2502 31.4864C93.2285 31.5401 93.1962 31.5889 93.1552 31.6298C93.1143 31.6708 93.0655 31.7031 93.0118 31.7248C92.9581 31.7465 92.9006 31.7573 92.8427 31.7564C92.7844 31.7573 92.7264 31.7466 92.6721 31.725C92.6179 31.7033 92.5685 31.6712 92.5267 31.6304C92.485 31.5896 92.4517 31.5409 92.4288 31.4872C92.406 31.4334 92.394 31.3757 92.3936 31.3173ZM92.5084 32.3643H93.1669V36.6229H92.5084V32.3643Z" fill="#85818C"/>
<path d="M97.3713 36.6221V33.8359C97.3713 33.0794 96.9829 32.8498 96.4088 32.8498C96.1618 32.8618 95.9206 32.9286 95.7027 33.0455C95.4849 33.1623 95.2957 33.3262 95.1491 33.5252V36.639H94.4736V32.3635H95.1491V32.9815C95.3386 32.7616 95.572 32.5837 95.8343 32.4592C96.0966 32.3348 96.382 32.2665 96.6722 32.2588C97.5536 32.2588 98.0231 32.708 98.0231 33.6333V36.6221H97.3713Z" fill="#85818C"/>
<path d="M99.3438 37.7028L99.6815 37.23C99.8509 37.4277 100.065 37.5825 100.305 37.6818C100.546 37.781 100.807 37.8217 101.066 37.8008C101.769 37.8008 102.441 37.463 102.441 36.558V35.9163C102.277 36.146 102.061 36.3341 101.811 36.4655C101.561 36.5968 101.284 36.6678 101.002 36.6728C99.8943 36.6728 99.1074 35.8454 99.1074 34.4708C99.1074 33.0963 99.8842 32.2588 101.002 32.2588C101.284 32.2605 101.562 32.3295 101.812 32.4598C102.062 32.5902 102.278 32.7783 102.441 33.0085V32.3635H103.099V36.558C103.099 37.9088 102.103 38.3479 101.073 38.3479C100.757 38.3727 100.439 38.3277 100.142 38.2163C99.8448 38.1048 99.5758 37.9296 99.354 37.7028H99.3438ZM102.447 35.3962V33.5286C102.302 33.3255 102.112 33.1589 101.892 33.0417C101.672 32.9245 101.427 32.8599 101.178 32.8532C100.313 32.8532 99.8031 33.5286 99.8031 34.4742C99.8031 35.4198 100.313 36.0851 101.178 36.0851C101.427 36.0794 101.672 36.0154 101.893 35.8981C102.113 35.7808 102.303 35.6135 102.447 35.4097" fill="#85818C"/>
<path d="M104.207 33.6881C104.193 33.2867 104.262 32.8868 104.409 32.5131C104.556 32.1393 104.778 31.7996 105.061 31.5148C105.344 31.2301 105.683 31.0063 106.056 30.8573C106.429 30.7084 106.828 30.6373 107.229 30.6486C107.669 30.6394 108.104 30.7414 108.494 30.9451C108.883 31.1488 109.215 31.4476 109.458 31.8138L108.851 32.1515C108.67 31.8885 108.428 31.6734 108.145 31.5246C107.863 31.3757 107.549 31.2977 107.229 31.297C105.943 31.297 104.963 32.2731 104.963 33.6847C104.963 35.0964 105.943 36.0724 107.229 36.0724C107.548 36.0695 107.862 35.9905 108.144 35.8418C108.426 35.6932 108.668 35.4793 108.851 35.218L109.465 35.5557C109.22 35.9223 108.887 36.2217 108.497 36.4264C108.106 36.6312 107.67 36.7347 107.229 36.7276C106.828 36.7394 106.428 36.6687 106.055 36.5199C105.682 36.3711 105.343 36.1473 105.06 35.8625C104.777 35.5776 104.555 35.2377 104.408 34.8637C104.261 34.4897 104.193 34.0896 104.207 33.6881Z" fill="#85818C"/>
<path d="M111.035 30.7432H110.373V36.6195H111.035V30.7432Z" fill="#85818C"/>
<path d="M112.123 34.4877C112.123 33.2551 112.934 32.2588 114.227 32.2588C115.521 32.2588 116.334 33.2719 116.334 34.4877C116.334 35.7035 115.524 36.7268 114.227 36.7268C112.93 36.7268 112.123 35.7137 112.123 34.4877ZM115.639 34.4877C115.639 33.6232 115.136 32.8498 114.227 32.8498C113.319 32.8498 112.798 33.6232 112.798 34.4877C112.798 35.3523 113.302 36.1358 114.207 36.1358C115.112 36.1358 115.618 35.3591 115.618 34.4877" fill="#85818C"/>
<path d="M120.269 36.6229V36.0218C120.078 36.2379 119.845 36.4123 119.584 36.5338C119.323 36.6553 119.04 36.7213 118.752 36.7276C117.861 36.7276 117.401 36.2852 117.401 35.3767V32.371H118.077V35.1741C118.077 35.9238 118.455 36.1433 119.036 36.1433C119.279 36.1367 119.518 36.0757 119.735 35.9646C119.952 35.8536 120.141 35.6954 120.289 35.5017V32.3643H120.947V36.6229H120.269Z" fill="#85818C"/>
<path d="M125.334 36.6195V35.9879C125.169 36.2153 124.953 36.4007 124.703 36.5292C124.453 36.6577 124.177 36.7256 123.896 36.7276C122.788 36.7276 122.001 35.8799 122.001 34.4986C122.001 33.1173 122.788 32.2595 123.896 32.2595C124.178 32.2613 124.455 32.3302 124.706 32.4606C124.956 32.5909 125.171 32.779 125.334 33.0093V30.7432H125.993V36.6195H125.334ZM125.334 35.4577V33.5361C125.191 33.3315 125.001 33.1637 124.78 33.0463C124.56 32.9289 124.314 32.8653 124.064 32.8607C123.2 32.8607 122.69 33.5665 122.69 34.5087C122.69 35.451 123.2 36.1467 124.064 36.1467C124.315 36.1431 124.56 36.08 124.781 35.9625C125.002 35.845 125.192 35.6766 125.334 35.4712" fill="#85818C"/>
<path d="M133.172 36.6195L130.944 33.9785L130.353 34.6472V36.6195H129.623V30.7432H130.353V33.7759L132.953 30.7432H133.868L131.42 33.5293L134.091 36.6195H133.172Z" fill="#85818C"/>
<path d="M134.203 33.6881C134.189 33.2867 134.258 32.8868 134.405 32.5131C134.552 32.1393 134.774 31.7996 135.057 31.5148C135.34 31.2301 135.679 31.0063 136.052 30.8573C136.425 30.7084 136.824 30.6373 137.226 30.6486C137.665 30.6394 138.1 30.7414 138.49 30.9451C138.879 31.1488 139.211 31.4476 139.454 31.8138L138.847 32.1515C138.666 31.8883 138.424 31.673 138.142 31.5242C137.859 31.3753 137.545 31.2974 137.226 31.297C135.939 31.297 134.963 32.2731 134.963 33.6847C134.963 35.0964 135.939 36.0724 137.226 36.0724C137.544 36.0698 137.858 35.9909 138.14 35.8422C138.422 35.6936 138.664 35.4795 138.847 35.218L139.465 35.5557C139.219 35.9224 138.885 36.2217 138.494 36.4264C138.103 36.6311 137.667 36.7346 137.226 36.7276C136.824 36.7394 136.424 36.6687 136.051 36.5199C135.678 36.3711 135.339 36.1473 135.056 35.8625C134.773 35.5776 134.551 35.2377 134.404 34.8637C134.257 34.4897 134.189 34.0896 134.203 33.6881Z" fill="#85818C"/>
<path d="M140.396 36.6226V30.7429H142.761C143 30.7325 143.238 30.7705 143.462 30.8548C143.686 30.9392 143.891 31.0679 144.064 31.2335C144.237 31.399 144.374 31.5978 144.468 31.8179C144.562 32.038 144.611 32.2749 144.611 32.5142C144.611 32.7536 144.562 32.9905 144.468 33.2106C144.374 33.4307 144.237 33.6295 144.064 33.795C143.891 33.9605 143.686 34.0893 143.462 34.1736C143.238 34.2579 143 34.296 142.761 34.2856H141.129V36.6226H140.396ZM143.845 32.5159C143.849 32.3629 143.821 32.2107 143.763 32.0691C143.704 31.9276 143.617 31.7998 143.506 31.6942C143.395 31.5885 143.264 31.5072 143.119 31.4556C142.975 31.4041 142.822 31.3833 142.669 31.3947H141.129V33.6338H142.669C142.822 33.6451 142.975 33.6245 143.119 33.5731C143.263 33.5217 143.394 33.4407 143.505 33.3354C143.616 33.2301 143.703 33.1028 143.761 32.9617C143.82 32.8205 143.848 32.6687 143.845 32.5159Z" fill="#85818C"/>
</svg>
